<svg width="448" height="512" xmlns="http://www.w3.org/2000/svg">
 <!--! Font Awesome Pro 6.2.0 by @fontawesome - https://fontawesome.com License - https://fontawesome.com/license (Commercial License) Copyright 2022 Fonticons, Inc. -->

 <g>
  <title>Layer 1</title>
  <path fill="#7f7f7f" id="svg_1" d="m211.8,339.8c-10.9,10.9 -28.7,10.9 -39.6,0l-64,-64c-10.93,-10.9 -10.93,-28.7 0,-39.6c10.9,-10.9 28.7,-10.9 39.6,0l44.2,44.2l108.2,-108.2c10.9,-10.9 28.7,-10.9 39.6,0c10.9,10.9 10.9,28.7 0,39.6l-128,128zm-211.8,-243.8c0,-35.35 28.65,-64 64,-64l320,0c35.3,0 64,28.65 64,64l0,320c0,35.3 -28.7,64 -64,64l-320,0c-35.35,0 -64,-28.7 -64,-64l0,-320zm48,0l0,320c0,8.8 7.16,16 16,16l320,0c8.8,0 16,-7.2 16,-16l0,-320c0,-8.84 -7.2,-16 -16,-16l-320,0c-8.84,0 -16,7.16 -16,16z"/>
 </g>
</svg>