<svg width="448" height="512" xmlns="http://www.w3.org/2000/svg">
 <!--! Font Awesome Pro 6.2.0 by @fontawesome - https://fontawesome.com License - https://fontawesome.com/license (Commercial License) Copyright 2022 Fonticons, Inc. -->

 <g>
  <title>Layer 1</title>
  <path fill="#7f7f7f" id="svg_1" d="m224,96c38.4,0 73.7,13.5 101.3,36.1l-32.6,32.6c-4.6,4.6 -5.9,11.5 -3.5,17.4s8.3,9.9 14.8,9.9l112,0c8.8,0 16,-7.2 16,-16l0,-112c0,-6.5 -3.9,-12.3 -9.9,-14.8s-12.9,-1.1 -17.4,3.5l-34,34c-39.3,-34.1 -90.6,-54.7 -146.7,-54.7c-10.9,0 -21.5,0.8 -32,2.3l0,64.9c10.3,-2.1 21,-3.2 32,-3.2zm-123.9,58.7l32.6,32.6c4.6,4.6 11.5,5.9 17.4,3.5s9.9,-8.3 9.9,-14.8l0,-112c0,-8.8 -7.2,-16 -16,-16l-112,0c-6.5,0 -12.3,3.9 -14.8,9.9s-1.1,12.9 3.5,17.4l34,34c-34.1,39.3 -54.7,90.6 -54.7,146.7c0,10.9 0.8,21.5 2.3,32l64.9,0c-2.1,-10.3 -3.2,-21 -3.2,-32c0,-38.4 13.5,-73.7 36.1,-101.3zm345.6,69.3l-64.9,0c2.1,10.3 3.2,21 3.2,32c0,38.4 -13.5,73.7 -36.1,101.3l-32.6,-32.6c-4.6,-4.6 -11.5,-5.9 -17.4,-3.5s-9.9,8.3 -9.9,14.8l0,112c0,8.8 7.2,16 16,16l112,0c6.5,0 12.3,-3.9 14.8,-9.9s1.1,-12.9 -3.5,-17.4l-34,-34c34.1,-39.3 54.7,-90.6 54.7,-146.7c0,-10.9 -0.8,-21.5 -2.3,-32zm-221.7,192c-38.4,0 -73.7,-13.5 -101.3,-36.1l32.6,-32.6c4.6,-4.6 5.9,-11.5 3.5,-17.4s-8.3,-9.9 -14.8,-9.9l-112,0c-8.8,0 -16,7.2 -16,16l0,112c0,6.5 3.9,12.3 9.9,14.8s12.9,1.1 17.4,-3.5l34,-34c39.3,34.1 90.6,54.7 146.7,54.7c10.9,0 21.5,-0.8 32,-2.3l0,-64.9c-10.3,2.1 -21,3.2 -32,3.2z"/>
 </g>
</svg>