<?xml version="1.0"?>
<svg version="1.1" xmlns="http://www.w3.org/2000/svg" xmlns:xlink="http://www.w3.org/1999/xlink" width="20" height="20">
    <desc iVinci="yes" version="4.6" gridStep="20" showGrid="no" snapToGrid="no" codePlatform="0"/>
    <g id="Layer1" name="Layer 1" opacity="1">
        <g id="Shape1">
            <desc shapeID="1" type="0" basicInfo-basicType="0" basicInfo-roundedRectRadius="12" basicInfo-polygonSides="6" basicInfo-starPoints="5" bounding="rect(-224,-256,448,512)" text="" font-familyName="" font-pixelSize="20" font-bold="0" font-underline="0" font-alignment="1" strokeStyle="0" markerStart="0" markerEnd="0" shadowEnabled="0" shadowOffsetX="0" shadowOffsetY="2" shadowBlur="4" shadowOpacity="160" blurEnabled="0" blurRadius="4" transform="matrix(0.0284937,0,0,0.0284937,10,9.25)" pers-center="0,0" pers-size="0,0" pers-start="0,0" pers-end="0,0" locked="0" mesh="" flag=""/>
            <path id="shapePath1" d="M15.982,3.83452 L14.5037,2.35621 C14.2472,2.09972 13.8993,1.95562 13.5366,1.95562 L8.63231,1.95562 C7.87694,1.95562 7.26461,2.56795 7.26461,3.32332 L7.26461,4.69101 L4.98511,4.69101 C4.22975,4.69101 3.61742,5.30334 3.61742,6.05871 L3.61742,15.1767 C3.61742,15.9321 4.22975,16.5444 4.98511,16.5444 L11.3677,16.5444 C12.1231,16.5444 12.7354,15.9321 12.7354,15.1767 L12.7354,13.809 L15.0149,13.809 C15.7703,13.809 16.3826,13.1967 16.3826,12.4413 L16.3826,4.80163 C16.3826,4.43889 16.2385,4.09101 15.982,3.83452 M11.1967,15.1767 L5.15608,15.1767 C5.06166,15.1767 4.98511,15.1002 4.98511,15.0057 L4.98511,6.22967 C4.98511,6.13525 5.06166,6.05871 5.15608,6.05871 L7.26461,6.05871 L7.26461,12.4413 C7.26461,13.1967 7.87694,13.809 8.63231,13.809 L11.3677,13.809 L11.3677,15.0057 C11.3677,15.1002 11.2912,15.1767 11.1967,15.1767 M14.8439,12.4413 L8.80327,12.4413 C8.70885,12.4413 8.63231,12.3648 8.63231,12.2703 L8.63231,3.49428 C8.63231,3.39986 8.70885,3.32332 8.80327,3.32332 L11.8236,3.32332 L11.8236,5.83076 C11.8236,6.20844 12.1298,6.51461 12.5074,6.51461 L15.0149,6.51461 L15.0149,12.2703 C15.0149,12.3648 14.9383,12.4413 14.8439,12.4413 M15.0149,5.14691 L13.1913,5.14691 L13.1913,3.32332 L13.4657,3.32332 C13.5111,3.32332 13.5546,3.34132 13.5866,3.37338 L14.9648,4.75156 C14.9969,4.78363 15.0149,4.82712 15.0149,4.87246 L15.0149,5.14691 Z" style="stroke:none;fill-rule:nonzero;fill:#b5ae9e;fill-opacity:1;"/>
        </g>
    </g>
</svg>
