<?xml version="1.0"?>
<svg version="1.1" xmlns="http://www.w3.org/2000/svg" xmlns:xlink="http://www.w3.org/1999/xlink" width="20" height="20">
    <desc iVinci="yes" version="4.6" gridStep="20" showGrid="no" snapToGrid="no" codePlatform="0"/>
    <g id="Layer1" name="Layer 1" opacity="1">
        <g id="Shape1">
            <desc shapeID="1" type="0" basicInfo-basicType="0" basicInfo-roundedRectRadius="12" basicInfo-polygonSides="6" basicInfo-starPoints="5" bounding="rect(-224,-256,448,512)" text="" font-familyName="" font-pixelSize="20" font-bold="0" font-underline="0" font-alignment="1" strokeStyle="0" markerStart="0" markerEnd="0" shadowEnabled="0" shadowOffsetX="0" shadowOffsetY="2" shadowBlur="4" shadowOpacity="160" blurEnabled="0" blurRadius="4" transform="matrix(0.0284937,0,0,0.0284937,10,10)" pers-center="0,0" pers-size="0,0" pers-start="0,0" pers-end="0,0" locked="0" mesh="" flag=""/>
            <path id="shapePath1" d="M15.982,4.58452 L14.5037,3.10621 C14.2472,2.84971 13.8993,2.70562 13.5366,2.70562 L8.63231,2.70562 C7.87694,2.70562 7.26461,3.31794 7.26461,4.07331 L7.26461,5.44101 L4.98511,5.44101 C4.22975,5.44101 3.61742,6.05334 3.61742,6.80871 L3.61742,15.9267 C3.61742,16.6821 4.22975,17.2944 4.98511,17.2944 L11.3677,17.2944 C12.1231,17.2944 12.7354,16.6821 12.7354,15.9267 L12.7354,14.559 L15.0149,14.559 C15.7703,14.559 16.3826,13.9467 16.3826,13.1913 L16.3826,5.55162 C16.3826,5.18889 16.2385,4.84101 15.982,4.58452 M11.1967,15.9267 L5.15608,15.9267 C5.06166,15.9267 4.98511,15.8501 4.98511,15.7557 L4.98511,6.97967 C4.98511,6.88525 5.06166,6.80871 5.15608,6.80871 L7.26461,6.80871 L7.26461,13.1913 C7.26461,13.9467 7.87694,14.559 8.63231,14.559 L11.3677,14.559 L11.3677,15.7557 C11.3677,15.8501 11.2912,15.9267 11.1967,15.9267 M14.8439,13.1913 L8.80327,13.1913 C8.70885,13.1913 8.63231,13.1148 8.63231,13.0203 L8.63231,4.24427 C8.63231,4.14986 8.70885,4.07331 8.80327,4.07331 L11.8236,4.07331 L11.8236,6.58076 C11.8236,6.95844 12.1298,7.26461 12.5074,7.26461 L15.0149,7.26461 L15.0149,13.0203 C15.0149,13.1148 14.9383,13.1913 14.8439,13.1913 M15.0149,5.89691 L13.1913,5.89691 L13.1913,4.07331 L13.4657,4.07331 C13.5111,4.07331 13.5546,4.09132 13.5866,4.12338 L14.9648,5.50156 C14.9969,5.53363 15.0149,5.57711 15.0149,5.62246 L15.0149,5.89691 Z" style="stroke:none;fill-rule:nonzero;fill:#b5ae9e;fill-opacity:1;"/>
        </g>
    </g>
</svg>
