<?xml version="1.0"?>
<svg version="1.1" xmlns="http://www.w3.org/2000/svg" xmlns:xlink="http://www.w3.org/1999/xlink" width="150" height="150">
    <desc iVinci="yes" version="4.6" gridStep="20" showGrid="no" snapToGrid="no" codePlatform="0"/>
    <g id="Layer1" name="icon" opacity="1">
        <g id="Shape1">
            <desc shapeID="1" type="0" basicInfo-basicType="2" basicInfo-roundedRectRadius="23" basicInfo-polygonSides="6" basicInfo-starPoints="5" bounding="rect(-64.5,-64.4998,129,129)" text="" font-familyName="Helvetica" font-pixelSize="20" font-bold="0" font-underline="0" font-alignment="1" strokeStyle="0" markerStart="0" markerEnd="0" shadowEnabled="0" shadowOffsetX="0" shadowOffsetY="2" shadowBlur="4" shadowOpacity="160" blurEnabled="0" blurRadius="4" transform="matrix(1.14091,0,0,1.14091,75.1763,74.8233)" pers-center="0,0" pers-size="0,0" pers-start="0,0" pers-end="0,0" locked="0" mesh="" flag=""/>
            <path id="shapePath1" d="M1.58757,27.4758 C1.58757,12.9833 13.3361,1.23479 27.8286,1.23479 L122.524,1.23479 C137.017,1.23479 148.765,12.9833 148.765,27.4758 L148.765,122.172 C148.765,136.665 137.017,148.412 122.524,148.412 L27.8286,148.412 C13.3361,148.412 1.58757,136.665 1.58757,122.172 L1.58757,27.4758 Z" style="stroke:#323232;stroke-opacity:1;stroke-width:0;stroke-linejoin:miter;stroke-miterlimit:2;stroke-linecap:round;fill-rule:evenodd;fill:#000000;fill-opacity:1;"/>
        </g>
        <g id="Shape2">
            <desc shapeID="2" type="0" basicInfo-basicType="0" basicInfo-roundedRectRadius="12" basicInfo-polygonSides="6" basicInfo-starPoints="5" bounding="rect(-78.2571,-35.7666,156.514,71.5332)" text="CSI" font-familyName="Andale Mono" font-pixelSize="100" font-bold="0" font-underline="0" font-alignment="1" strokeStyle="0" markerStart="0" markerEnd="0" shadowEnabled="0" shadowOffsetX="0" shadowOffsetY="2" shadowBlur="4" shadowOpacity="160" blurEnabled="0" blurRadius="4" transform="matrix(0.721978,0,0,0.721978,74.0625,75)" pers-center="0,0" pers-size="0,0" pers-start="0,0" pers-end="0,0" locked="0" mesh="" flag=""/>
            <path id="shapePath2" d="M50.8412,96.7686 C46.9399,99.4714 42.4158,100.823 37.2689,100.823 C30.8294,100.823 25.9351,98.6135 22.5861,94.1952 C19.237,89.7768 17.5625,83.3843 17.5625,75.0176 C17.5625,66.933 19.1842,60.6051 22.4274,56.034 C25.6707,51.4629 30.6178,49.1773 37.2689,49.1773 C39.6661,49.1773 42.0398,49.4828 44.3899,50.0939 C46.7401,50.7049 48.632,51.5157 50.0657,52.5263 L48.162,57.0739 C44.8482,55.1938 41.2172,54.2537 37.2689,54.2537 C32.686,54.2537 29.2782,55.9165 27.0456,59.242 C24.8129,62.5675 23.6965,67.8261 23.6965,75.0176 C23.6965,88.8367 28.2206,95.7463 37.2689,95.7463 C41.0997,95.7463 45.0245,94.5712 49.0433,92.221 L50.8412,96.7686 M90.5355,55.6286 C87.5742,54.618 84.7658,54.1127 82.11,54.1127 C79.1018,54.1127 76.6517,54.8001 74.7598,56.175 C72.8679,57.5499 71.922,59.5064 71.922,62.0446 C71.922,65.0528 74.4014,67.6968 79.3603,69.9765 C83.0266,71.6686 85.4532,72.8437 86.64,73.5018 C87.8269,74.1598 89.0314,75.0646 90.2535,76.2162 C91.4755,77.3678 92.4568,78.7251 93.1971,80.2879 C93.9374,81.8508 94.3075,83.6076 94.3075,85.5582 C94.3075,90.3996 92.68,94.1541 89.425,96.8215 C86.17,99.489 82.3333,100.823 77.915,100.823 C73.6376,100.823 69.8891,99.9767 66.6693,98.2845 L67.8679,93.3139 C71.6517,95.0295 74.9537,95.8873 77.7739,95.8873 C81.0642,95.8873 83.7023,95.0354 85.6882,93.3315 C87.6741,91.6276 88.6671,89.2833 88.6671,86.2985 C88.6671,84.0894 88.0208,82.2151 86.7282,80.6757 C85.4356,79.1363 83.0501,77.5676 79.5718,75.9695 C75.9996,74.3243 73.6905,73.2021 72.6447,72.6028 C71.5988,72.0035 70.5589,71.1751 69.5248,70.1175 C68.4907,69.0599 67.6916,67.8731 67.1276,66.557 C66.5635,65.2408 66.2815,63.8072 66.2815,62.2561 C66.2815,58.1433 67.7621,54.9353 70.7234,52.6321 C73.6846,50.3289 77.4332,49.1773 81.969,49.1773 C85.2828,49.1773 88.5731,49.6826 91.8398,50.6932 L90.5355,55.6286 M130.562,99.8709 L111.715,99.8709 L111.715,94.8297 L118.407,94.8297 L118.407,55.1703 L111.715,55.1703 L111.715,50.1291 L130.562,50.1291 L130.562,55.1703 L124.188,55.1703 L124.188,94.8297 L130.562,94.8297 L130.562,99.8709 Z" style="stroke:none;fill-rule:nonzero;fill:#ffffff;fill-opacity:1;"/>
        </g>
    </g>
</svg>
