<?xml version="1.0"?>
<svg version="1.1" xmlns="http://www.w3.org/2000/svg" xmlns:xlink="http://www.w3.org/1999/xlink" width="150" height="150">
    <desc iVinci="yes" version="4.6" gridStep="20" showGrid="no" snapToGrid="no" codePlatform="0"/>
    <g id="Layer1" name="Layer 2" opacity="1">
        <g id="Shape1">
            <desc shapeID="1" type="0" basicInfo-basicType="2" basicInfo-roundedRectRadius="23" basicInfo-polygonSides="6" basicInfo-starPoints="5" bounding="rect(-64.5,-64.5,129,129)" text="" font-familyName="Helvetica" font-pixelSize="20" font-bold="0" font-underline="0" font-alignment="1" strokeStyle="0" markerStart="0" markerEnd="0" shadowEnabled="0" shadowOffsetX="0" shadowOffsetY="2" shadowBlur="4" shadowOpacity="160" blurEnabled="0" blurRadius="4" transform="matrix(1,0,0,1,802,168)" pers-center="0,0" pers-size="0,0" pers-start="0,0" pers-end="0,0" locked="0" mesh="" flag=""/>
            <path id="shapePath1" d="M737.5,126.5 C737.5,113.798 747.797,103.5 760.5,103.5 L843.5,103.5 C856.203,103.5 866.5,113.798 866.5,126.5 L866.5,209.5 C866.5,222.203 856.203,232.5 843.5,232.5 L760.5,232.5 C747.797,232.5 737.5,222.203 737.5,209.5 L737.5,126.5 Z" style="stroke:#323232;stroke-opacity:1;stroke-width:0;stroke-linejoin:miter;stroke-miterlimit:2;stroke-linecap:round;fill-rule:evenodd;fill:url(#linearGradientFill1);fill-opacity:1;"/><defs><linearGradient id="linearGradientFill1" gradientUnits="userSpaceOnUse" x1="802" y1="119" x2="802" y2="223"><stop offset="0" stop-color="#b0ebdf" stop-opacity="1"/><stop offset="1" stop-color="#9ee1ff" stop-opacity="1"/></linearGradient></defs>
        </g>
        <g id="Shape2">
            <desc shapeID="2" type="0" basicInfo-basicType="2" basicInfo-roundedRectRadius="23" basicInfo-polygonSides="6" basicInfo-starPoints="5" bounding="rect(-64.5,-64.5,129,129)" text="" font-familyName="Helvetica" font-pixelSize="20" font-bold="0" font-underline="0" font-alignment="1" strokeStyle="0" markerStart="0" markerEnd="0" shadowEnabled="0" shadowOffsetX="0" shadowOffsetY="2" shadowBlur="4" shadowOpacity="160" blurEnabled="0" blurRadius="4" transform="matrix(1,0,0,1,75,75)" pers-center="0,0" pers-size="0,0" pers-start="0,0" pers-end="0,0" locked="0" mesh="" flag=""/>
            <path id="shapePath2" d="M10.5,33.5 C10.5,20.7975 20.7975,10.5 33.5,10.5 L116.5,10.5 C129.203,10.5 139.5,20.7975 139.5,33.5 L139.5,116.5 C139.5,129.203 129.203,139.5 116.5,139.5 L33.5,139.5 C20.7975,139.5 10.5,129.203 10.5,116.5 L10.5,33.5 Z" style="stroke:#323232;stroke-opacity:1;stroke-width:0;stroke-linejoin:miter;stroke-miterlimit:2;stroke-linecap:round;fill-rule:evenodd;fill:url(#linearGradientFill2);fill-opacity:1;"/><defs><linearGradient id="linearGradientFill2" gradientUnits="userSpaceOnUse" x1="75" y1="26" x2="75" y2="130"><stop offset="0" stop-color="#b0ebdf" stop-opacity="1"/><stop offset="1" stop-color="#9ee1ff" stop-opacity="1"/></linearGradient></defs>
        </g>
    </g>
    <g id="Layer2" name="Layer 1" opacity="1">
        <g id="Shape3">
            <desc shapeID="3" type="0" basicInfo-basicType="2" basicInfo-roundedRectRadius="23" basicInfo-polygonSides="6" basicInfo-starPoints="5" bounding="rect(-64.5,-64.5,129,129)" text="" font-familyName="Helvetica" font-pixelSize="20" font-bold="0" font-underline="0" font-alignment="1" strokeStyle="0" markerStart="0" markerEnd="0" shadowEnabled="0" shadowOffsetX="0" shadowOffsetY="2" shadowBlur="4" shadowOpacity="160" blurEnabled="0" blurRadius="4" transform="matrix(0.87692,0,0,0.874376,75,75)" pers-center="0,0" pers-size="0,0" pers-start="0,0" pers-end="0,0" locked="0" mesh="" flag=""/>
            <path id="shapePath3" d="M18.4386,38.7134 C18.4386,27.6066 27.4687,18.6028 38.6078,18.6028 L111.392,18.6028 C122.532,18.6028 131.561,27.6066 131.561,38.7134 L131.561,111.287 C131.561,122.394 122.532,131.397 111.392,131.397 L38.6078,131.397 C27.4687,131.397 18.4386,122.394 18.4386,111.287 L18.4386,38.7134 Z" style="stroke:#323232;stroke-opacity:1;stroke-width:0;stroke-linejoin:miter;stroke-miterlimit:2;stroke-linecap:round;fill-rule:evenodd;fill:url(#linearGradientFill3);fill-opacity:1;"/><defs><linearGradient id="linearGradientFill3" gradientUnits="userSpaceOnUse" x1="75" y1="32.1556" x2="75" y2="123.091"><stop offset="0" stop-color="#faf16a" stop-opacity="1"/><stop offset="1" stop-color="#56d0f8" stop-opacity="1"/></linearGradient></defs>
        </g>
    </g>
    <g id="Layer3" name="Layer 4" opacity="1">
        <g id="Shape4">
            <desc shapeID="4" type="0" basicInfo-basicType="1" basicInfo-roundedRectRadius="12" basicInfo-polygonSides="6" basicInfo-starPoints="5" bounding="rect(-64.0326,-13.6603,128.066,27.3204)" text="" font-familyName="Helvetica" font-pixelSize="20" font-bold="0" font-underline="0" font-alignment="1" strokeStyle="0" markerStart="0" markerEnd="0" shadowEnabled="0" shadowOffsetX="0" shadowOffsetY="2" shadowBlur="4" shadowOpacity="160" blurEnabled="0" blurRadius="4" transform="matrix(0.87692,0,0,1.07931,75,60.2565)" pers-center="0,0" pers-size="0,0" pers-start="0,0" pers-end="0,0" locked="0" mesh="" flag=""/>
            <path id="shapePath4" d="M18.8486,45.5127 L131.152,45.5127 L131.152,75 L18.8486,75 L18.8486,45.5127 Z" style="stroke:#323232;stroke-opacity:1;stroke-width:0;stroke-linejoin:miter;stroke-miterlimit:2;stroke-linecap:round;fill-rule:evenodd;fill:#b9e940;fill-opacity:0.509804;"/>
        </g>
        <g id="Shape5">
            <desc shapeID="5" type="0" basicInfo-basicType="1" basicInfo-roundedRectRadius="12" basicInfo-polygonSides="6" basicInfo-starPoints="5" bounding="rect(-64.0326,-13.6603,128.066,27.3206)" text="" font-familyName="Helvetica" font-pixelSize="20" font-bold="0" font-underline="0" font-alignment="1" strokeStyle="0" markerStart="0" markerEnd="0" shadowEnabled="0" shadowOffsetX="0" shadowOffsetY="2" shadowBlur="4" shadowOpacity="160" blurEnabled="0" blurRadius="4" transform="matrix(0.87692,0,0,1.07931,75,89.7437)" pers-center="0,0" pers-size="0,0" pers-start="0,0" pers-end="0,0" locked="0" mesh="" flag=""/>
            <path id="shapePath5" d="M18.8486,75 L131.152,75 L131.152,104.487 L18.8486,104.487 L18.8486,75 Z" style="stroke:#323232;stroke-opacity:1;stroke-width:0;stroke-linejoin:miter;stroke-miterlimit:2;stroke-linecap:round;fill-rule:evenodd;fill:#75b446;fill-opacity:0.501961;"/>
        </g>
    </g>
    <g id="Layer4" name="Layer 5" opacity="1">
        <g id="Shape6">
            <desc shapeID="6" type="2" basicInfo-basicType="0" basicInfo-roundedRectRadius="12" basicInfo-polygonSides="6" basicInfo-starPoints="5" bounding="rect(-46.0442,-44.7908,92.088,89.5816)" text="CSI" font-familyName="Hiragino Kaku Gothic Std" font-pixelSize="57" font-bold="1" font-underline="0" font-alignment="1" strokeStyle="0" markerStart="0" markerEnd="0" shadowEnabled="0" shadowOffsetX="0" shadowOffsetY="2" shadowBlur="4" shadowOpacity="160" blurEnabled="0" blurRadius="4" transform="matrix(1,0,0,1,75.8706,74.9989)" pers-center="0,0" pers-size="0,0" pers-start="0,0" pers-end="0,0" locked="0" mesh="" flag=""/>
            <path id="shapePath6" d="M36.6924,53.37 C40.0322,49.993 44.2813,48.3045 49.4395,48.3045 C56.3418,48.3045 61.3887,50.5682 64.5801,55.0956 C66.3428,57.6375 67.2891,60.1888 67.419,62.7494 L58.8467,62.7494 C58.2901,60.7826 57.5757,59.2982 56.7036,58.2962 C55.145,56.515 52.835,55.6244 49.7735,55.6244 C46.6563,55.6244 44.1978,56.8814 42.398,59.3956 C40.5982,61.9098 39.6983,65.4676 39.6983,70.0692 C39.6983,74.6707 40.6492,78.1173 42.551,80.4088 C44.4529,82.7003 46.8697,83.846 49.8013,83.846 C52.8072,83.846 55.0987,82.8626 56.6758,80.8958 C57.5479,79.8382 58.2715,78.2518 58.8467,76.1366 L67.3355,76.1366 C66.5933,80.6082 64.6961,84.245 61.6438,87.0467 C58.5916,89.8485 54.6812,91.2494 49.9126,91.2494 C44.0122,91.2494 39.3736,89.3568 35.9966,85.5716 C32.6197,81.7679 30.9312,76.554 30.9312,69.93 C30.9312,62.7679 32.8516,57.2479 36.6924,53.37 M80.0752,77.4447 C80.335,79.3187 80.8452,80.7196 81.606,81.6473 C82.9976,83.3358 85.3819,84.18 88.7588,84.18 C90.7813,84.18 92.4234,83.9574 93.6851,83.5121 C96.0786,82.6585 97.2754,81.0721 97.2754,78.7528 C97.2754,77.3983 96.6817,76.3499 95.4942,75.6078 C94.3067,74.8841 92.4419,74.244 89.8999,73.6873 L85.5581,72.7132 C81.2906,71.7484 78.3404,70.7 76.7075,69.5682 C73.9429,67.6756 72.5606,64.7162 72.5606,60.6898 C72.5606,57.016 73.8965,53.9637 76.5684,51.5331 C79.2403,49.1024 83.1646,47.8871 88.3413,47.8871 C92.6646,47.8871 96.3523,49.0328 99.4046,51.3243 C102.457,53.6158 104.057,56.9417 104.206,61.3021 L95.9673,61.3021 C95.8189,58.8343 94.7427,57.0809 92.7388,56.0418 C91.4029,55.3553 89.7422,55.0121 87.7569,55.0121 C85.5489,55.0121 83.7862,55.4574 82.4688,56.348 C81.1514,57.2386 80.4927,58.4818 80.4927,60.0775 C80.4927,61.5433 81.1421,62.638 82.4409,63.3617 C83.2759,63.8441 85.0572,64.41 87.7847,65.0594 L94.854,66.7572 C97.9527,67.4994 100.291,68.492 101.868,69.7352 C104.317,71.6649 105.542,74.4574 105.542,78.1126 C105.542,81.8607 104.108,84.9732 101.241,87.4503 C98.3748,89.9273 94.3252,91.1659 89.0928,91.1659 C83.749,91.1659 79.5464,89.9459 76.4849,87.506 C73.4234,85.066 71.8926,81.7122 71.8926,77.4447 L80.0752,77.4447 M119.733,90.1082 L111.216,90.1082 L111.216,49.0838 L119.733,49.0838 L119.733,90.1082 Z" style="stroke:none;fill-rule:nonzero;fill:#ffffff;fill-opacity:1;"/>
        </g>
    </g>
</svg>
