<?xml version="1.0"?>
<svg version="1.1" xmlns="http://www.w3.org/2000/svg" xmlns:xlink="http://www.w3.org/1999/xlink" width="150" height="150">
    <desc iVinci="yes" version="4.6" gridStep="20" showGrid="no" snapToGrid="no" codePlatform="0"/>
    <g id="Layer1" name="Layer 2" opacity="1">
        <g id="Shape1">
            <desc shapeID="1" type="0" basicInfo-basicType="2" basicInfo-roundedRectRadius="23" basicInfo-polygonSides="6" basicInfo-starPoints="5" bounding="rect(-64.5,-64.5,129,129)" text="" font-familyName="Helvetica" font-pixelSize="20" font-bold="0" font-underline="0" font-alignment="1" strokeStyle="0" markerStart="0" markerEnd="0" shadowEnabled="0" shadowOffsetX="0" shadowOffsetY="2" shadowBlur="4" shadowOpacity="160" blurEnabled="0" blurRadius="4" transform="matrix(1.14091,0,0,1.14091,75.1764,74.8236)" pers-center="0,0" pers-size="0,0" pers-start="0,0" pers-end="0,0" locked="0" mesh="" flag=""/>
            <path id="shapePath1" d="M1.58758,27.4758 C1.58758,12.9833 13.3361,1.23477 27.8286,1.23477 L122.524,1.23477 C137.017,1.23477 148.765,12.9833 148.765,27.4758 L148.765,122.172 C148.765,136.665 137.017,148.412 122.524,148.412 L27.8286,148.412 C13.3361,148.412 1.58758,136.665 1.58758,122.172 L1.58758,27.4758 Z" style="stroke:#323232;stroke-opacity:1;stroke-width:0;stroke-linejoin:miter;stroke-miterlimit:2;stroke-linecap:round;fill-rule:evenodd;fill:#48ffdd;fill-opacity:1;"/>
        </g>
    </g>
    <g id="Layer2" name="Layer 4" opacity="1">
        <g id="Shape2">
            <desc shapeID="2" type="0" basicInfo-basicType="0" basicInfo-roundedRectRadius="23" basicInfo-polygonSides="6" basicInfo-starPoints="5" bounding="rect(-59.9394,-64.5,119.879,129)" text="" font-familyName="Helvetica" font-pixelSize="20" font-bold="0" font-underline="0" font-alignment="1" strokeStyle="0" markerStart="0" markerEnd="0" shadowEnabled="0" shadowOffsetX="0" shadowOffsetY="2" shadowBlur="4" shadowOpacity="160" blurEnabled="0" blurRadius="4" transform="matrix(1.14091,0,0,1.14091,80.3795,74.8236)" pers-center="0,0" pers-size="0,0" pers-start="0,0" pers-end="0,0" locked="0" mesh="" flag=""/>
            <path id="shapePath2" d="M51.7692,1.23479 L122.524,1.23479 C137.017,1.23479 148.765,12.9833 148.765,27.4758 L148.765,122.172 C148.765,136.665 137.017,148.412 122.524,148.412 L52.8908,148.412 C52.8908,148.412 11.994,123.034 11.994,74.8236 C11.994,28.3381 51.7692,1.23479 51.7692,1.23479 Z" style="stroke:#323232;stroke-opacity:1;stroke-width:0;stroke-linejoin:miter;stroke-miterlimit:2;stroke-linecap:round;fill-rule:evenodd;fill:#00f5ff;fill-opacity:1;"/>
        </g>
    </g>
    <g id="Layer3" name="Layer 6" opacity="1">
        <g id="Shape3">
            <desc shapeID="3" type="0" basicInfo-basicType="0" basicInfo-roundedRectRadius="23" basicInfo-polygonSides="6" basicInfo-starPoints="5" bounding="rect(-34.9973,-64.5,69.9946,129)" text="" font-familyName="Helvetica" font-pixelSize="20" font-bold="0" font-underline="0" font-alignment="1" strokeStyle="0" markerStart="0" markerEnd="0" shadowEnabled="0" shadowOffsetX="0" shadowOffsetY="2" shadowBlur="4" shadowOpacity="160" blurEnabled="0" blurRadius="4" transform="matrix(1.14091,0,0,1.14091,108.836,74.8236)" pers-center="0,0" pers-size="0,0" pers-start="0,0" pers-end="0,0" locked="0" mesh="" flag=""/>
            <path id="shapePath3" d="M86.2797,1.23477 L122.524,1.23479 C137.017,1.23479 148.765,12.9833 148.765,27.4758 L148.765,122.172 C148.765,136.665 137.017,148.412 122.524,148.412 L68.9076,148.412 C68.9076,148.412 86.2797,133.824 86.2797,104.299 C86.2797,75.5905 68.9076,74.3323 68.9076,37.5142 C68.9076,12.2084 86.2797,1.23477 86.2797,1.23477 Z" style="stroke:#323232;stroke-opacity:1;stroke-width:0;stroke-linejoin:miter;stroke-miterlimit:2;stroke-linecap:round;fill-rule:evenodd;fill:#00d5ff;fill-opacity:1;"/>
        </g>
    </g>
    <g id="Layer4" name="Layer 1" opacity="1">
        <g id="Shape4">
            <desc shapeID="4" type="0" basicInfo-basicType="0" basicInfo-roundedRectRadius="23" basicInfo-polygonSides="6" basicInfo-starPoints="5" bounding="rect(-14.1743,-64.5,28.3484,129)" text="" font-familyName="Helvetica" font-pixelSize="20" font-bold="0" font-underline="0" font-alignment="1" strokeStyle="0" markerStart="0" markerEnd="0" shadowEnabled="0" shadowOffsetX="0" shadowOffsetY="2" shadowBlur="4" shadowOpacity="160" blurEnabled="0" blurRadius="4" transform="matrix(1.14091,0,0,1.14091,132.594,75)" pers-center="0,0" pers-size="0,0" pers-start="0,0" pers-end="0,0" locked="0" mesh="" flag=""/>
            <path id="shapePath4" d="M116.422,1.41119 L122.524,1.41119 C137.017,1.41119 148.765,13.1597 148.765,27.6522 L148.765,122.348 C148.765,136.841 137.017,148.589 122.524,148.589 L116.422,148.589 C116.422,148.589 124.051,116.235 124.051,75 C124.051,33.6028 116.422,1.41119 116.422,1.41119 Z" style="stroke:#323232;stroke-opacity:1;stroke-width:0;stroke-linejoin:miter;stroke-miterlimit:2;stroke-linecap:round;fill-rule:evenodd;fill:#00baff;fill-opacity:1;"/>
        </g>
    </g>
</svg>
