<?xml version="1.0"?>
<svg version="1.1" xmlns="http://www.w3.org/2000/svg" xmlns:xlink="http://www.w3.org/1999/xlink" width="265.05" height="265.05">
    <desc iVinci="yes" version="4.6" gridStep="20" showGrid="no" snapToGrid="no" codePlatform="0"/>
    <g id="Layer1" name="Layer 3" opacity="1">
        <g id="Shape1">
            <desc shapeID="1" type="0" basicInfo-basicType="2" basicInfo-roundedRectRadius="12" basicInfo-polygonSides="6" basicInfo-starPoints="5" bounding="rect(-121.654,-84.5173,243.308,169.035)" text="" font-familyName="Helvetica" font-pixelSize="20" font-bold="0" font-underline="0" font-alignment="1" strokeStyle="0" markerStart="0" markerEnd="0" shadowEnabled="0" shadowOffsetX="0" shadowOffsetY="2" shadowBlur="4" shadowOpacity="160" blurEnabled="0" blurRadius="4" transform="matrix(1,0,0,1,133.179,169.462)" pers-center="0,0" pers-size="0,0" pers-start="0,0" pers-end="0,0" locked="0" mesh="" flag=""/>
            <path id="shapePath1" d="M11.5251,96.9442 C11.5251,90.3168 16.8977,84.9442 23.5251,84.9442 L242.833,84.9442 C249.46,84.9442 254.833,90.3168 254.833,96.9442 L254.833,241.979 C254.833,248.606 249.46,253.979 242.833,253.979 L23.5251,253.979 C16.8977,253.979 11.5251,248.606 11.5251,241.979 L11.5251,96.9442 Z" style="stroke:none;fill-rule:evenodd;fill:#c5cbcf;fill-opacity:1;"/>
        </g>
    </g>
    <g id="Layer2" name="Layer 1" opacity="1">
        <g id="Shape2">
            <desc shapeID="2" type="0" basicInfo-basicType="0" basicInfo-roundedRectRadius="12" basicInfo-polygonSides="6" basicInfo-starPoints="5" bounding="rect(-132.525,-132.524,265.05,265.049)" text="" font-familyName="" font-pixelSize="20" font-bold="0" font-underline="0" font-alignment="1" strokeStyle="0" markerStart="0" markerEnd="0" shadowEnabled="0" shadowOffsetX="0" shadowOffsetY="2" shadowBlur="4" shadowOpacity="160" blurEnabled="0" blurRadius="4" transform="matrix(1,0,0,1,132.525,132.525)" pers-center="0,0" pers-size="0,0" pers-start="0,0" pers-end="0,0" locked="0" mesh="" flag=""/>
            <path id="shapePath2" d="M265.05,38.776 L265.05,226.275 C265.05,247.659 247.724,265.05 226.468,265.05 L38.55,265.05 C17.294,265.05 0,247.66 0,226.275 L0,38.776 C0,17.392 17.294,0.00100708 38.55,0.00100708 L226.468,0.00100708 C247.723,0.00100708 265.05,17.392 265.05,38.776 M248.657,226.275 L248.657,92.012 L16.392,92.012 L16.392,226.276 C16.392,238.578 26.343,248.562 38.549,248.562 L226.467,248.562 C238.706,248.561 248.657,238.577 248.657,226.275 M248.657,75.555 L248.657,38.776 C248.657,26.474 238.706,16.49 226.468,16.49 L38.55,16.49 C26.344,16.49 16.393,26.474 16.393,38.776 L16.393,75.554 L248.657,75.555 Z" style="stroke:none;fill-rule:nonzero;fill:#2d213f;fill-opacity:1;"/>
        </g>
        <g id="Shape3">
            <desc shapeID="3" type="0" basicInfo-basicType="0" basicInfo-roundedRectRadius="12" basicInfo-polygonSides="6" basicInfo-starPoints="5" bounding="rect(-116.133,-29.532,232.265,59.064)" text="" font-familyName="" font-pixelSize="20" font-bold="0" font-underline="0" font-alignment="1" strokeStyle="0" markerStart="0" markerEnd="0" shadowEnabled="0" shadowOffsetX="0" shadowOffsetY="2" shadowBlur="4" shadowOpacity="160" blurEnabled="0" blurRadius="4" transform="matrix(1,0,0,1,132.525,46.022)" pers-center="0,0" pers-size="0,0" pers-start="0,0" pers-end="0,0" locked="0" mesh="" flag=""/>
            <path id="shapePath3" d="M248.657,38.776 L248.657,75.554 L16.392,75.554 L16.392,38.776 C16.392,26.474 26.343,16.49 38.549,16.49 L226.467,16.49 C238.706,16.49 248.657,26.474 248.657,38.776 M227.82,49.436 C227.82,43.188 222.764,38.132 216.548,38.132 C210.3,38.132 205.276,43.188 205.276,49.436 C205.276,55.716 210.3,60.772 216.548,60.772 C222.764,60.772 227.82,55.716 227.82,49.436 M61.48,49.436 C61.48,43.188 56.424,38.132 50.208,38.132 C43.992,38.132 38.936,43.188 38.936,49.436 C38.936,55.716 43.992,60.772 50.208,60.772 C56.424,60.772 61.48,55.716 61.48,49.436 Z" style="stroke:none;fill-rule:nonzero;fill:#ef685e;fill-opacity:1;"/>
        </g>
        <g id="Shape4">
            <desc shapeID="4" type="0" basicInfo-basicType="0" basicInfo-roundedRectRadius="12" basicInfo-polygonSides="6" basicInfo-starPoints="5" bounding="rect(-108.988,-26.717,217.976,53.434)" text="" font-familyName="" font-pixelSize="20" font-bold="0" font-underline="0" font-alignment="1" strokeStyle="0" markerStart="0" markerEnd="0" shadowEnabled="0" shadowOffsetX="0" shadowOffsetY="2" shadowBlur="4" shadowOpacity="160" blurEnabled="0" blurRadius="4" transform="matrix(1,0,0,1,125.38,48.837)" pers-center="0,0" pers-size="0,0" pers-start="0,0" pers-end="0,0" locked="0" mesh="" flag=""/>
            <path id="shapePath4" d="M234.368,58.631 L234.368,44.406 C234.368,32.104 224.417,22.12 212.179,22.12 L24.26,22.12 C24.125,22.12 23.993,22.139 23.857,22.139 C19.29,26.223 16.392,32.155 16.392,38.776 L16.392,75.554 L226.686,75.554 C231.389,71.423 234.368,65.381 234.368,58.631 M50.208,60.772 C43.992,60.772 38.936,55.716 38.936,49.436 C38.936,43.188 43.992,38.132 50.208,38.132 C56.424,38.132 61.48,43.188 61.48,49.436 C61.48,55.716 56.424,60.772 50.208,60.772 M205.277,49.436 C205.277,43.188 210.301,38.132 216.549,38.132 C222.765,38.132 227.821,43.188 227.821,49.436 C227.821,55.716 222.765,60.772 216.549,60.772 C210.301,60.772 205.277,55.716 205.277,49.436 Z" style="stroke:none;fill-rule:nonzero;fill:#f47c6d;fill-opacity:1;"/>
        </g>
        <g id="Shape5">
            <desc shapeID="5" type="0" basicInfo-basicType="0" basicInfo-roundedRectRadius="12" basicInfo-polygonSides="6" basicInfo-starPoints="5" bounding="rect(-11.272,-11.32,22.544,22.64)" text="" font-familyName="" font-pixelSize="20" font-bold="0" font-underline="0" font-alignment="1" strokeStyle="0" markerStart="0" markerEnd="0" shadowEnabled="0" shadowOffsetX="0" shadowOffsetY="2" shadowBlur="4" shadowOpacity="160" blurEnabled="0" blurRadius="4" transform="matrix(1,0,0,1,216.548,49.452)" pers-center="0,0" pers-size="0,0" pers-start="0,0" pers-end="0,0" locked="0" mesh="" flag=""/>
            <path id="shapePath5" d="M216.548,38.132 C222.764,38.132 227.82,43.188 227.82,49.436 C227.82,55.716 222.764,60.772 216.548,60.772 C210.3,60.772 205.276,55.716 205.276,49.436 C205.277,43.188 210.301,38.132 216.548,38.132 Z" style="stroke:none;fill-rule:nonzero;fill:#2d213f;fill-opacity:1;"/>
        </g>
        <g id="Shape6">
            <desc shapeID="6" type="0" basicInfo-basicType="0" basicInfo-roundedRectRadius="12" basicInfo-polygonSides="6" basicInfo-starPoints="5" bounding="rect(-11.272,-11.32,22.544,22.64)" text="" font-familyName="" font-pixelSize="20" font-bold="0" font-underline="0" font-alignment="1" strokeStyle="0" markerStart="0" markerEnd="0" shadowEnabled="0" shadowOffsetX="0" shadowOffsetY="2" shadowBlur="4" shadowOpacity="160" blurEnabled="0" blurRadius="4" transform="matrix(1,0,0,1,50.208,49.452)" pers-center="0,0" pers-size="0,0" pers-start="0,0" pers-end="0,0" locked="0" mesh="" flag=""/>
            <path id="shapePath6" d="M50.208,38.132 C56.424,38.132 61.48,43.188 61.48,49.436 C61.48,55.716 56.424,60.772 50.208,60.772 C43.992,60.772 38.936,55.716 38.936,49.436 C38.936,43.188 43.992,38.132 50.208,38.132 Z" style="stroke:none;fill-rule:nonzero;fill:#2d213f;fill-opacity:1;"/>
        </g>
    </g>
    <g id="Layer3" name="Layer 2" opacity="1">
        <g id="Shape7">
            <desc shapeID="7" type="2" basicInfo-basicType="0" basicInfo-roundedRectRadius="12" basicInfo-polygonSides="6" basicInfo-starPoints="5" bounding="rect(-70.4311,-57.1986,140.862,114.397)" text="2" font-familyName="Hiragino Kaku Gothic StdN" font-pixelSize="150" font-bold="0" font-underline="0" font-alignment="1" strokeStyle="0" markerStart="0" markerEnd="0" shadowEnabled="0" shadowOffsetX="0" shadowOffsetY="2" shadowBlur="4" shadowOpacity="160" blurEnabled="0" blurRadius="4" transform="matrix(1,0,0,1,137.447,167.754)" pers-center="0,0" pers-size="0,0" pers-start="0,0" pers-end="0,0" locked="0" mesh="" flag=""/>
            <path id="shapePath7" d="M161.679,229.217 C172.329,229.217 178.629,229.517 187.329,230.267 L187.329,201.917 C181.479,202.667 174.579,202.967 163.329,202.967 L128.379,202.967 C131.829,196.367 137.379,191.117 150.429,182.117 C165.729,171.467 167.229,170.417 172.179,166.067 C181.479,158.417 185.979,149.117 185.979,138.167 C185.979,131.717 184.329,125.867 181.029,120.617 C173.529,108.467 158.079,101.717 137.829,101.717 C120.279,101.717 106.629,107.117 98.0787,117.167 C92.0787,124.217 89.3787,130.817 87.1287,143.867 L118.629,147.167 C119.379,140.867 120.279,137.867 122.379,134.567 C125.679,129.467 130.779,127.067 137.979,127.067 C147.579,127.067 154.029,131.867 154.029,139.067 C154.029,145.967 150.879,149.867 137.979,158.567 C122.679,168.917 116.979,173.267 111.279,178.517 C100.779,188.267 93.5787,199.667 89.6786,212.117 C87.8787,217.967 87.1287,222.467 86.5287,229.817 C92.0787,229.367 95.5287,229.217 109.029,229.217 L161.679,229.217 Z" style="stroke:none;fill-rule:nonzero;fill:#2d213f;fill-opacity:1;"/>
        </g>
    </g>
</svg>
