<?xml version="1.0"?>
<svg version="1.1" xmlns="http://www.w3.org/2000/svg" xmlns:xlink="http://www.w3.org/1999/xlink" width="16" height="16">
    <desc iVinci="yes" version="4.6" gridStep="20" showGrid="no" snapToGrid="no" codePlatform="0"/>
    <g id="Layer1" name="Layer 2" opacity="1">
        <g id="Shape1">
            <desc shapeID="1" type="0" basicInfo-basicType="0" basicInfo-roundedRectRadius="12" basicInfo-polygonSides="6" basicInfo-starPoints="5" bounding="rect(-243.999,-243.999,487.998,487.998)" text="" font-familyName="Helvetica" font-pixelSize="20" font-bold="0" font-underline="0" font-alignment="1" strokeStyle="0" markerStart="0" markerEnd="0" shadowEnabled="0" shadowOffsetX="0" shadowOffsetY="2" shadowBlur="4" shadowOpacity="160" blurEnabled="0" blurRadius="4" transform="matrix(0.032787,0,0,0.032787,8,8)" pers-center="0,0" pers-size="0,0" pers-start="0,0" pers-end="0,0" locked="0" mesh="" flag=""/>
            <path id="shapePath1" d="M0,8.00003 C0,3.57378 3.57378,0 8.00002,0 C12.4262,0 16,3.57378 16,8.00003 C16,12.4262 12.4262,16 8.00002,16 C3.57378,16 0,12.4262 0,8.00003 M10.2132,8.22953 L12.4262,6.01641 C12.7377,5.72133 12.7377,5.21313 12.4262,4.91805 L11.3279,3.80329 C11.0164,3.50821 10.5246,3.50821 10.2132,3.80329 L8.00002,6.01641 L5.78691,3.80329 C5.47542,3.50821 4.98363,3.50821 4.67215,3.80329 L3.57378,4.91805 C3.26231,5.21313 3.26231,5.72133 3.57378,6.01641 L5.78691,8.22953 L3.57378,10.4427 C3.26231,10.7541 3.26231,11.246 3.57378,11.5574 L4.67215,12.6722 C4.98363,12.9673 5.47542,12.9673 5.78691,12.6722 L8.00002,10.4427 L10.2132,12.6722 C10.5246,12.9673 11.0164,12.9673 11.3279,12.6722 L12.4262,11.5574 C12.7377,11.246 12.7377,10.7541 12.4262,10.4427 L10.2132,8.22953 Z" style="stroke:none;fill-rule:evenodd;fill:#d4212c;fill-opacity:1;"/>
        </g>
    </g>
</svg>
