<?xml version="1.0"?>
<svg version="1.1" xmlns="http://www.w3.org/2000/svg" xmlns:xlink="http://www.w3.org/1999/xlink" width="265.05" height="265.05">
    <desc iVinci="yes" version="4.6" gridStep="20" showGrid="no" snapToGrid="no" codePlatform="0"/>
    <g id="Layer1" name="Layer 3" opacity="1">
        <g id="Shape1">
            <desc shapeID="1" type="0" basicInfo-basicType="2" basicInfo-roundedRectRadius="12" basicInfo-polygonSides="6" basicInfo-starPoints="5" bounding="rect(-121.654,-84.5173,243.308,169.035)" text="" font-familyName="Helvetica" font-pixelSize="20" font-bold="0" font-underline="0" font-alignment="1" strokeStyle="0" markerStart="0" markerEnd="0" shadowEnabled="0" shadowOffsetX="0" shadowOffsetY="2" shadowBlur="4" shadowOpacity="160" blurEnabled="0" blurRadius="4" transform="matrix(1,0,0,1,133.179,169.462)" pers-center="0,0" pers-size="0,0" pers-start="0,0" pers-end="0,0" locked="0" mesh="" flag=""/>
            <path id="shapePath1" d="M11.5251,96.9442 C11.5251,90.3168 16.8977,84.9442 23.5251,84.9442 L242.833,84.9442 C249.46,84.9442 254.833,90.3168 254.833,96.9442 L254.833,241.979 C254.833,248.606 249.46,253.979 242.833,253.979 L23.5251,253.979 C16.8977,253.979 11.5251,248.606 11.5251,241.979 L11.5251,96.9442 Z" style="stroke:none;fill-rule:evenodd;fill:#c5cbcf;fill-opacity:1;"/>
        </g>
    </g>
    <g id="Layer2" name="Layer 1" opacity="1">
        <g id="Shape2">
            <desc shapeID="2" type="0" basicInfo-basicType="0" basicInfo-roundedRectRadius="12" basicInfo-polygonSides="6" basicInfo-starPoints="5" bounding="rect(-132.525,-132.524,265.05,265.049)" text="" font-familyName="" font-pixelSize="20" font-bold="0" font-underline="0" font-alignment="1" strokeStyle="0" markerStart="0" markerEnd="0" shadowEnabled="0" shadowOffsetX="0" shadowOffsetY="2" shadowBlur="4" shadowOpacity="160" blurEnabled="0" blurRadius="4" transform="matrix(1,0,0,1,132.525,132.525)" pers-center="0,0" pers-size="0,0" pers-start="0,0" pers-end="0,0" locked="0" mesh="" flag=""/>
            <path id="shapePath2" d="M265.05,38.776 L265.05,226.275 C265.05,247.659 247.724,265.05 226.468,265.05 L38.55,265.05 C17.294,265.05 0,247.66 0,226.275 L0,38.776 C0,17.392 17.294,0.00100708 38.55,0.00100708 L226.468,0.00100708 C247.723,0.00100708 265.05,17.392 265.05,38.776 M248.657,226.275 L248.657,92.012 L16.392,92.012 L16.392,226.276 C16.392,238.578 26.343,248.562 38.549,248.562 L226.467,248.562 C238.706,248.561 248.657,238.577 248.657,226.275 M248.657,75.555 L248.657,38.776 C248.657,26.474 238.706,16.49 226.468,16.49 L38.55,16.49 C26.344,16.49 16.393,26.474 16.393,38.776 L16.393,75.554 L248.657,75.555 Z" style="stroke:none;fill-rule:nonzero;fill:#2d213f;fill-opacity:1;"/>
        </g>
        <g id="Shape3">
            <desc shapeID="3" type="0" basicInfo-basicType="0" basicInfo-roundedRectRadius="12" basicInfo-polygonSides="6" basicInfo-starPoints="5" bounding="rect(-116.133,-29.532,232.265,59.064)" text="" font-familyName="" font-pixelSize="20" font-bold="0" font-underline="0" font-alignment="1" strokeStyle="0" markerStart="0" markerEnd="0" shadowEnabled="0" shadowOffsetX="0" shadowOffsetY="2" shadowBlur="4" shadowOpacity="160" blurEnabled="0" blurRadius="4" transform="matrix(1,0,0,1,132.525,46.022)" pers-center="0,0" pers-size="0,0" pers-start="0,0" pers-end="0,0" locked="0" mesh="" flag=""/>
            <path id="shapePath3" d="M248.657,38.776 L248.657,75.554 L16.392,75.554 L16.392,38.776 C16.392,26.474 26.343,16.49 38.549,16.49 L226.467,16.49 C238.706,16.49 248.657,26.474 248.657,38.776 M227.82,49.436 C227.82,43.188 222.764,38.132 216.548,38.132 C210.3,38.132 205.276,43.188 205.276,49.436 C205.276,55.716 210.3,60.772 216.548,60.772 C222.764,60.772 227.82,55.716 227.82,49.436 M61.48,49.436 C61.48,43.188 56.424,38.132 50.208,38.132 C43.992,38.132 38.936,43.188 38.936,49.436 C38.936,55.716 43.992,60.772 50.208,60.772 C56.424,60.772 61.48,55.716 61.48,49.436 Z" style="stroke:none;fill-rule:nonzero;fill:#ef685e;fill-opacity:1;"/>
        </g>
        <g id="Shape4">
            <desc shapeID="4" type="0" basicInfo-basicType="0" basicInfo-roundedRectRadius="12" basicInfo-polygonSides="6" basicInfo-starPoints="5" bounding="rect(-108.988,-26.717,217.976,53.434)" text="" font-familyName="" font-pixelSize="20" font-bold="0" font-underline="0" font-alignment="1" strokeStyle="0" markerStart="0" markerEnd="0" shadowEnabled="0" shadowOffsetX="0" shadowOffsetY="2" shadowBlur="4" shadowOpacity="160" blurEnabled="0" blurRadius="4" transform="matrix(1,0,0,1,125.38,48.837)" pers-center="0,0" pers-size="0,0" pers-start="0,0" pers-end="0,0" locked="0" mesh="" flag=""/>
            <path id="shapePath4" d="M234.368,58.631 L234.368,44.406 C234.368,32.104 224.417,22.12 212.179,22.12 L24.26,22.12 C24.125,22.12 23.993,22.139 23.857,22.139 C19.29,26.223 16.392,32.155 16.392,38.776 L16.392,75.554 L226.686,75.554 C231.389,71.423 234.368,65.381 234.368,58.631 M50.208,60.772 C43.992,60.772 38.936,55.716 38.936,49.436 C38.936,43.188 43.992,38.132 50.208,38.132 C56.424,38.132 61.48,43.188 61.48,49.436 C61.48,55.716 56.424,60.772 50.208,60.772 M205.277,49.436 C205.277,43.188 210.301,38.132 216.549,38.132 C222.765,38.132 227.821,43.188 227.821,49.436 C227.821,55.716 222.765,60.772 216.549,60.772 C210.301,60.772 205.277,55.716 205.277,49.436 Z" style="stroke:none;fill-rule:nonzero;fill:#f47c6d;fill-opacity:1;"/>
        </g>
        <g id="Shape5">
            <desc shapeID="5" type="0" basicInfo-basicType="0" basicInfo-roundedRectRadius="12" basicInfo-polygonSides="6" basicInfo-starPoints="5" bounding="rect(-11.272,-11.32,22.544,22.64)" text="" font-familyName="" font-pixelSize="20" font-bold="0" font-underline="0" font-alignment="1" strokeStyle="0" markerStart="0" markerEnd="0" shadowEnabled="0" shadowOffsetX="0" shadowOffsetY="2" shadowBlur="4" shadowOpacity="160" blurEnabled="0" blurRadius="4" transform="matrix(1,0,0,1,216.548,49.452)" pers-center="0,0" pers-size="0,0" pers-start="0,0" pers-end="0,0" locked="0" mesh="" flag=""/>
            <path id="shapePath5" d="M216.548,38.132 C222.764,38.132 227.82,43.188 227.82,49.436 C227.82,55.716 222.764,60.772 216.548,60.772 C210.3,60.772 205.276,55.716 205.276,49.436 C205.277,43.188 210.301,38.132 216.548,38.132 Z" style="stroke:none;fill-rule:nonzero;fill:#2d213f;fill-opacity:1;"/>
        </g>
        <g id="Shape6">
            <desc shapeID="6" type="0" basicInfo-basicType="0" basicInfo-roundedRectRadius="12" basicInfo-polygonSides="6" basicInfo-starPoints="5" bounding="rect(-11.272,-11.32,22.544,22.64)" text="" font-familyName="" font-pixelSize="20" font-bold="0" font-underline="0" font-alignment="1" strokeStyle="0" markerStart="0" markerEnd="0" shadowEnabled="0" shadowOffsetX="0" shadowOffsetY="2" shadowBlur="4" shadowOpacity="160" blurEnabled="0" blurRadius="4" transform="matrix(1,0,0,1,50.208,49.452)" pers-center="0,0" pers-size="0,0" pers-start="0,0" pers-end="0,0" locked="0" mesh="" flag=""/>
            <path id="shapePath6" d="M50.208,38.132 C56.424,38.132 61.48,43.188 61.48,49.436 C61.48,55.716 56.424,60.772 50.208,60.772 C43.992,60.772 38.936,55.716 38.936,49.436 C38.936,43.188 43.992,38.132 50.208,38.132 Z" style="stroke:none;fill-rule:nonzero;fill:#2d213f;fill-opacity:1;"/>
        </g>
    </g>
    <g id="Layer3" name="Layer 2" visibility="hidden" opacity="1">
        <g id="Shape7">
            <desc shapeID="7" type="2" basicInfo-basicType="0" basicInfo-roundedRectRadius="12" basicInfo-polygonSides="6" basicInfo-starPoints="5" bounding="rect(-70.4311,-57.1986,140.862,114.397)" text="S" font-familyName="Hiragino Kaku Gothic StdN" font-pixelSize="150" font-bold="0" font-underline="0" font-alignment="1" strokeStyle="0" markerStart="0" markerEnd="0" shadowEnabled="0" shadowOffsetX="0" shadowOffsetY="2" shadowBlur="4" shadowOpacity="160" blurEnabled="0" blurRadius="4" transform="matrix(1,0,0,1,137.447,167.754)" pers-center="0,0" pers-size="0,0" pers-start="0,0" pers-end="0,0" locked="0" mesh="" flag=""/>
            <path id="shapePath7" d="M85.7005,191.567 C86.7505,198.467 87.5005,201.917 89.0005,205.517 C92.1505,214.067 97.7005,220.517 105.201,224.717 C113.301,229.367 125.901,232.067 138.651,232.067 C156.201,232.067 169.401,227.717 178.101,219.317 C185.001,212.567 188.601,202.967 188.601,191.717 C188.601,177.917 183.201,167.867 172.401,161.117 C166.701,157.517 159.501,154.967 148.101,152.567 C130.401,148.967 130.401,148.967 127.401,147.617 C122.601,145.367 120.351,142.217 120.351,138.017 C120.351,131.117 127.101,126.167 136.251,126.167 C147.651,126.167 153.051,130.217 154.851,139.967 L186.651,136.517 C184.701,127.967 182.901,123.467 179.151,118.517 C171.051,107.267 156.501,101.417 137.451,101.417 C107.901,101.417 89.3005,115.967 89.3005,139.067 C89.3005,151.217 94.4005,161.267 103.851,167.867 C109.401,171.767 114.201,173.567 128.001,176.567 C143.601,180.167 147.351,181.217 150.501,182.717 C154.401,184.517 156.801,188.567 156.801,193.217 C156.801,201.617 149.901,206.717 138.351,206.717 C130.701,206.717 124.401,204.167 120.801,199.667 C118.551,196.667 117.501,193.967 116.901,188.567 L85.7005,191.567 Z" style="stroke:none;fill-rule:nonzero;fill:#2d213f;fill-opacity:1;"/>
        </g>
    </g>
    <g id="Layer4" name="Layer 4" opacity="1">
        <g id="Shape8">
            <desc shapeID="8" type="2" basicInfo-basicType="0" basicInfo-roundedRectRadius="12" basicInfo-polygonSides="6" basicInfo-starPoints="5" bounding="rect(-70.4311,-57.1986,140.862,114.397)" text="S" font-familyName="Hiragino Kaku Gothic StdN" font-pixelSize="150" font-bold="0" font-underline="0" font-alignment="1" strokeStyle="0" markerStart="0" markerEnd="0" shadowEnabled="0" shadowOffsetX="0" shadowOffsetY="2" shadowBlur="4" shadowOpacity="160" blurEnabled="0" blurRadius="4" transform="matrix(1,0,0,1,527.593,193.792)" pers-center="0,0" pers-size="0,0" pers-start="0,0" pers-end="0,0" locked="0" mesh="" flag=""/>
            <path id="shapePath8" d="M475.846,217.605 C476.896,224.505 477.646,227.955 479.146,231.555 C482.296,240.105 487.846,246.555 495.346,250.755 C503.446,255.405 516.046,258.105 528.796,258.105 C546.346,258.105 559.546,253.755 568.246,245.355 C575.146,238.605 578.746,229.005 578.746,217.755 C578.746,203.955 573.346,193.905 562.546,187.155 C556.846,183.555 549.646,181.005 538.246,178.605 C520.546,175.005 520.546,175.005 517.546,173.655 C512.746,171.405 510.496,168.255 510.496,164.055 C510.496,157.155 517.246,152.205 526.396,152.205 C537.796,152.205 543.196,156.255 544.996,166.005 L576.796,162.555 C574.846,154.005 573.046,149.505 569.296,144.555 C561.196,133.305 546.646,127.455 527.596,127.455 C498.046,127.455 479.446,142.005 479.446,165.105 C479.446,177.255 484.546,187.305 493.996,193.905 C499.546,197.805 504.346,199.605 518.146,202.605 C533.746,206.205 537.496,207.255 540.646,208.755 C544.546,210.555 546.946,214.605 546.946,219.255 C546.946,227.655 540.046,232.755 528.496,232.755 C520.846,232.755 514.546,230.205 510.946,225.705 C508.696,222.705 507.646,220.005 507.046,214.605 L475.846,217.605 Z" style="stroke:none;fill-rule:nonzero;fill:#2d213f;fill-opacity:1;"/>
        </g>
        <g id="Shape9">
            <desc shapeID="9" type="2" basicInfo-basicType="0" basicInfo-roundedRectRadius="12" basicInfo-polygonSides="6" basicInfo-starPoints="5" bounding="rect(-70.4311,-57.1986,140.862,114.397)" text="?" font-familyName="Hiragino Kaku Gothic StdN" font-pixelSize="150" font-bold="0" font-underline="0" font-alignment="1" strokeStyle="0" markerStart="0" markerEnd="0" shadowEnabled="0" shadowOffsetX="0" shadowOffsetY="2" shadowBlur="4" shadowOpacity="160" blurEnabled="0" blurRadius="4" transform="matrix(1,0,0,1,137.447,167.754)" pers-center="0,0" pers-size="0,0" pers-start="0,0" pers-end="0,0" locked="0" mesh="" flag=""/>
            <path id="shapePath9" d="M148.11,190.667 C147.81,188.267 147.66,186.617 147.66,184.817 C147.66,177.917 149.91,174.017 156.21,169.967 C169.26,161.867 170.76,160.817 174.36,157.517 C180.66,151.667 183.66,144.617 183.66,135.467 C183.66,114.767 166.41,101.717 138.81,101.717 C121.56,101.717 108.21,106.817 99.5099,116.717 C93.8099,123.017 91.4099,128.867 89.9099,139.517 L120.81,142.517 C121.41,137.867 122.01,135.767 123.51,133.367 C126.36,128.717 131.31,126.317 138.06,126.317 C147.06,126.317 152.31,130.517 152.31,137.567 C152.31,142.517 149.91,145.667 142.56,150.017 C131.91,156.467 130.71,157.367 127.11,161.567 C122.31,167.417 120.51,173.417 120.51,183.767 C120.51,188.117 120.51,188.267 120.21,190.667 L148.11,190.667 M119.16,200.867 L119.16,229.217 L149.31,229.217 L149.31,200.867 L119.16,200.867 Z" style="stroke:none;fill-rule:nonzero;fill:#2d213f;fill-opacity:1;"/>
        </g>
    </g>
</svg>
