<?xml version="1.0"?>
<svg version="1.1" xmlns="http://www.w3.org/2000/svg" xmlns:xlink="http://www.w3.org/1999/xlink" width="512" height="512">
    <desc iVinci="yes" version="4.6" gridStep="20" showGrid="no" snapToGrid="no" codePlatform="0" markedExportShape="1"/>
    <g id="Layer1" name="Layer 1" opacity="1">
        <g id="Shape1">
            <desc shapeID="1" type="0" basicInfo-basicType="0" basicInfo-roundedRectRadius="12" basicInfo-polygonSides="6" basicInfo-starPoints="5" bounding="rect(-248,-248,496,496)" text="" font-familyName="" font-pixelSize="20" font-bold="0" font-underline="0" font-alignment="1" strokeStyle="0" markerStart="0" markerEnd="0" shadowEnabled="0" shadowOffsetX="0" shadowOffsetY="2" shadowBlur="4" shadowOpacity="160" blurEnabled="0" blurRadius="4" transform="matrix(1,0,0,1,256,256)" pers-center="0,0" pers-size="0,0" pers-start="0,0" pers-end="0,0" locked="0" mesh="" flag=""/>
            <path id="shapePath1" d="M256,8 C119.043,8 8,119.083 8,256 C8,392.997 119.043,504 256,504 C392.957,504 504,392.997 504,256 C504,119.083 392.957,8 256,8 M256,118 C279.196,118 298,136.804 298,160 C298,183.196 279.196,202 256,202 C232.804,202 214,183.196 214,160 C214,136.804 232.804,118 256,118 M312,372 C312,378.627 306.627,384 300,384 L212,384 C205.373,384 200,378.627 200,372 L200,348 C200,341.373 205.373,336 212,336 L224,336 L224,272 L212,272 C205.373,272 200,266.627 200,260 L200,236 C200,229.373 205.373,224 212,224 L276,224 C282.627,224 288,229.373 288,236 L288,336 L300,336 C306.627,336 312,341.373 312,348 L312,372 Z" style="stroke:none;fill-rule:nonzero;fill:#a8a8a8;fill-opacity:1;"/>
        </g>
    </g>
</svg>
