<?xml-stylesheet type="text/css" href="style.css"?>
<svg id="Layer_1" data-name="Layer 1" xmlns="http://www.w3.org/2000/svg" viewBox="0 0 44 44"><defs><style>.cls-1{fill:#fcb434;}</style></defs><title>katana_logo</title><path class="cls-1" d="M22.4.5a22,22,0,1,0,22,22A22,22,0,0,0,22.4.5Zm0,41.73A19.75,19.75,0,1,1,42.18,22.48,19.75,19.75,0,0,1,22.4,42.23Z" transform="translate(-0.4 -0.5)"/><path class="cls-1" d="M39.82,22.22a10.2,10.2,0,0,1-16.78,6,11.61,11.61,0,0,0,6-3.78l.19.31a10.23,10.23,0,0,1,1.24,3.47,11.53,11.53,0,0,0-.64-4.87A11.6,11.6,0,0,0,13.4,7.53,10.2,10.2,0,0,1,27,19a11.64,11.64,0,0,0-6.28-3.23l.17-.32a10.23,10.23,0,0,1,2.39-2.81,11.53,11.53,0,0,0-3.89,3,11.6,11.6,0,0,0-5.53,22.08A10.2,10.2,0,0,1,17,20.19a11.63,11.63,0,0,0,.34,7H17a10.23,10.23,0,0,1-3.63-.66,11.67,11.67,0,0,0,4.53,1.88,11.6,11.6,0,0,0,21.89-6.25ZM21.31,26.31a10.25,10.25,0,0,1-1.71-6.63,10.21,10.21,0,0,1,6.6,1.83A10.26,10.26,0,0,1,21.31,26.31Z" transform="translate(-0.4 -0.5)"/></svg>
