<?xml version="1.0"?>
<svg version="1.1" xmlns="http://www.w3.org/2000/svg" xmlns:xlink="http://www.w3.org/1999/xlink" width="20" height="20">
    <desc iVinci="yes" version="4.6" gridStep="20" showGrid="no" snapToGrid="no" codePlatform="0"/>
    <g id="Layer1" name="Layer 1" opacity="1">
        <g id="Shape1">
            <desc shapeID="1" type="0" basicInfo-basicType="0" basicInfo-roundedRectRadius="12" basicInfo-polygonSides="6" basicInfo-starPoints="5" bounding="rect(-256,-256,512,512.001)" text="" font-familyName="" font-pixelSize="20" font-bold="0" font-underline="0" font-alignment="1" strokeStyle="0" markerStart="0" markerEnd="0" shadowEnabled="0" shadowOffsetX="0" shadowOffsetY="2" shadowBlur="4" shadowOpacity="160" blurEnabled="0" blurRadius="4" transform="matrix(0.0348307,0,0,0.0348307,9.875,9.875)" pers-center="0,0" pers-size="0,0" pers-start="0,0" pers-end="0,0" locked="0" mesh="" flag=""/>
            <path id="shapePath1" d="M12.3345,7.41564 C14.4155,9.49883 14.387,12.8387 12.347,14.89 C12.3432,14.8941 12.3387,14.8987 12.3345,14.9028 L9.99386,17.2435 C7.92944,19.3079 4.57076,19.3076 2.50665,17.2435 C0.442238,15.1794 0.442238,11.8203 2.50665,9.75626 L3.79908,8.46383 C4.14182,8.1211 4.73206,8.34889 4.74975,8.83325 C4.77232,9.45052 4.88301,10.0707 5.08726,10.6696 C5.15643,10.8723 5.10701,11.0967 4.9555,11.2482 L4.49967,11.704 C3.5235,12.6802 3.49288,14.2696 4.45944,15.2553 C5.43553,16.2508 7.0399,16.2567 8.02349,15.2731 L10.3641,12.9328 C11.346,11.9509 11.3419,10.3638 10.3641,9.38601 C10.2352,9.25735 10.1054,9.15738 10.0039,9.08755 C9.85843,8.98764 9.76872,8.82484 9.76196,8.64847 C9.74816,8.28042 9.87857,7.90114 10.1694,7.61031 L10.9027,6.87695 C11.095,6.68465 11.3967,6.66103 11.6197,6.81666 C11.8751,6.99497 12.1142,7.19541 12.3345,7.41564 M17.2433,2.50653 C15.1792,0.442396 11.8206,0.442117 9.75614,2.50653 L7.41552,4.84715 C7.41134,4.85133 7.40681,4.85586 7.40298,4.86004 C5.36308,6.91129 5.33449,10.2512 7.41552,12.3344 C7.63575,12.5546 7.87492,12.755 8.13028,12.9333 C8.35326,13.0889 8.65497,13.0653 8.84723,12.873 L9.58056,12.1397 C9.8714,11.8488 10.0018,11.4695 9.98801,11.1015 C9.98125,10.9251 9.89153,10.7623 9.74604,10.6624 C9.64461,10.5926 9.51476,10.4926 9.38586,10.364 C8.40805,9.38615 8.40394,7.79906 9.38586,6.81714 L11.7265,4.47687 C12.7101,3.49329 14.3144,3.49921 15.2905,4.49463 C16.2571,5.48034 16.2265,7.06981 15.2503,8.04597 L14.7945,8.5018 C14.643,8.65331 14.5935,8.87762 14.6627,9.08041 C14.867,9.67929 14.9776,10.2994 15.0002,10.9167 C15.0179,11.4011 15.6082,11.6289 15.9509,11.2861 L17.2433,9.9937 C19.3078,7.92967 19.3078,4.5706 17.2433,2.50653 Z" style="stroke:none;fill-rule:nonzero;fill:#b5ae9e;fill-opacity:1;"/>
        </g>
    </g>
</svg>
