<?xml version="1.0"?>
<svg version="1.1" xmlns="http://www.w3.org/2000/svg" xmlns:xlink="http://www.w3.org/1999/xlink" width="480" height="480">
    <desc iVinci="yes" version="4.6" gridStep="20" showGrid="no" snapToGrid="no" codePlatform="0"/>
    <g id="Layer1" name="Layer 1" opacity="1">
        <g id="Shape1">
            <desc shapeID="1" type="0" basicInfo-basicType="0" basicInfo-roundedRectRadius="12" basicInfo-polygonSides="6" basicInfo-starPoints="5" bounding="rect(-146.236,-157.451,292.472,314.901)" text="" font-familyName="Helvetica" font-pixelSize="20" font-bold="0" font-underline="0" font-alignment="1" strokeStyle="0" markerStart="0" markerEnd="0" shadowEnabled="0" shadowOffsetX="0" shadowOffsetY="2" shadowBlur="4" shadowOpacity="160" blurEnabled="0" blurRadius="4" transform="matrix(0.844564,0,0,0.844564,308.86,143.638)" pers-center="0,0" pers-size="0,0" pers-start="0,0" pers-end="0,0" locked="0" mesh="" flag=""/>
            <path id="shapePath1" d="M191.422,217.266 C207.174,199.228 224.681,215.094 238.016,222.84 C251.846,230.875 276.779,226.359 289.499,214.51 C317.149,188.755 358.075,144.619 372.756,128.937 C385.686,115.125 388.313,88.9034 372.13,72.1967 C357.667,57.2667 330.152,56.6079 316.3,68.6197 C305.977,77.5713 264.041,118.089 264.041,118.089 C264.041,118.089 252.579,110.982 238.872,108.856 C223.215,106.428 205.409,107.516 205.409,107.516 C205.409,107.516 256.672,56.4645 283.826,31.2866 C316.3,1.17592 374.537,5.02242 407.175,36.3837 C443.985,71.7533 435.99,135.502 411.672,161.799 C380.076,195.967 339.486,235.671 310.565,259.864 C289.167,277.764 251.972,279.448 230.304,273.594 C217.991,270.268 199.695,259.54 194.06,253.413 C188.335,247.189 179.164,231.303 191.422,217.266 Z" style="stroke:none;fill-rule:evenodd;fill:#ffffff;fill-opacity:1;"/>
        </g>
        <g id="Shape2">
            <desc shapeID="2" type="0" basicInfo-basicType="0" basicInfo-roundedRectRadius="12" basicInfo-polygonSides="6" basicInfo-starPoints="5" bounding="rect(-146.236,-157.451,292.472,314.901)" text="" font-familyName="Helvetica" font-pixelSize="20" font-bold="0" font-underline="0" font-alignment="1" strokeStyle="0" markerStart="0" markerEnd="0" shadowEnabled="0" shadowOffsetX="0" shadowOffsetY="2" shadowBlur="4" shadowOpacity="160" blurEnabled="0" blurRadius="4" transform="matrix(-0.844501,0.0102577,-0.0102577,-0.844501,170.615,264.906)" pers-center="0,0" pers-size="0,0" pers-start="0,0" pers-end="0,0" locked="0" mesh="" flag=""/>
            <path id="shapePath2" d="M287.149,189.857 C271.618,208.085 253.919,192.434 240.491,184.85 C226.564,176.983 201.689,181.802 189.113,193.805 C161.778,219.894 121.392,264.523 106.902,280.382 C94.1402,294.35 91.8319,320.602 108.217,337.111 C122.861,351.864 150.381,352.189 164.086,340.01 C174.3,330.933 215.74,289.909 215.74,289.909 C215.74,289.909 227.288,296.876 241.02,298.836 C256.706,301.074 274.497,299.77 274.497,299.77 C274.497,299.77 223.858,351.44 197.012,376.946 C164.905,407.449 106.626,404.31 73.6093,373.347 C36.3723,338.427 43.5928,274.586 67.5894,247.996 C98.7689,213.447 138.873,173.252 167.498,148.71 C188.677,130.552 225.849,128.416 247.586,134.006 C259.939,137.182 278.364,147.687 284.073,153.746 C289.873,159.9 299.236,175.672 287.149,189.857 Z" style="stroke:none;fill-rule:evenodd;fill:#ffffff;fill-opacity:1;"/>
        </g>
    </g>
</svg>
