<?xml version="1.0"?>
<svg version="1.1" xmlns="http://www.w3.org/2000/svg" xmlns:xlink="http://www.w3.org/1999/xlink" width="318.188" height="318.188">
    <desc iVinci="yes" version="4.6" gridStep="20" showGrid="no" snapToGrid="no" codePlatform="0"/>
    <g id="Layer1" name="Layer 1" opacity="1">
        <g id="Shape1">
            <desc shapeID="1" type="0" basicInfo-basicType="0" basicInfo-roundedRectRadius="12" basicInfo-polygonSides="6" basicInfo-starPoints="5" bounding="rect(-59.45,-59.45,118.9,118.9)" text="" font-familyName="" font-pixelSize="20" font-bold="0" font-underline="0" font-alignment="1" strokeStyle="0" markerStart="0" markerEnd="0" shadowEnabled="0" shadowOffsetX="0" shadowOffsetY="2" shadowBlur="4" shadowOpacity="160" blurEnabled="0" blurRadius="4" transform="matrix(1,0,0,1,157.853,129.643)" pers-center="0,0" pers-size="0,0" pers-start="0,0" pers-end="0,0" locked="0" mesh="" flag=""/>
            <path id="shapePath1" d="M217.303,129.643 C217.303,162.476 190.686,189.093 157.853,189.093 C125.02,189.093 98.403,162.476 98.403,129.643 C98.403,96.8097 125.02,70.193 157.853,70.193 C190.686,70.193 217.303,96.8097 217.303,129.643 Z" style="stroke:none;fill-rule:evenodd;fill:#333e48;fill-opacity:1;"/>
        </g>
        <g id="Shape2">
            <desc shapeID="2" type="0" basicInfo-basicType="0" basicInfo-roundedRectRadius="12" basicInfo-polygonSides="6" basicInfo-starPoints="5" bounding="rect(-34.387,-34.387,68.774,68.774)" text="" font-familyName="" font-pixelSize="20" font-bold="0" font-underline="0" font-alignment="1" strokeStyle="0" markerStart="0" markerEnd="0" shadowEnabled="0" shadowOffsetX="0" shadowOffsetY="2" shadowBlur="4" shadowOpacity="160" blurEnabled="0" blurRadius="4" transform="matrix(1,0,0,1,157.853,129.643)" pers-center="0,0" pers-size="0,0" pers-start="0,0" pers-end="0,0" locked="0" mesh="" flag=""/>
            <path id="shapePath2" d="M192.24,129.643 C192.24,148.634 176.844,164.03 157.853,164.03 C138.862,164.03 123.466,148.634 123.466,129.643 C123.466,110.652 138.862,95.256 157.853,95.256 C176.844,95.256 192.24,110.652 192.24,129.643 Z" style="stroke:none;fill-rule:evenodd;fill:#38a3ff;fill-opacity:1;"/>
        </g>
        <g id="Shape3">
            <desc shapeID="3" type="0" basicInfo-basicType="0" basicInfo-roundedRectRadius="12" basicInfo-polygonSides="6" basicInfo-starPoints="5" bounding="rect(-31.6926,-31.6923,63.3852,63.3845)" text="" font-familyName="" font-pixelSize="20" font-bold="0" font-underline="0" font-alignment="1" strokeStyle="0" markerStart="0" markerEnd="0" shadowEnabled="0" shadowOffsetX="0" shadowOffsetY="2" shadowBlur="4" shadowOpacity="160" blurEnabled="0" blurRadius="4" transform="matrix(1,0,0,1,185.61,157.401)" pers-center="0,0" pers-size="0,0" pers-start="0,0" pers-end="0,0" locked="0" mesh="" flag=""/>
            <path id="shapePath3" d="M157.853,129.643 C152.606,134.89 152.606,143.395 157.853,148.642 L198.304,189.093 L217.303,189.093 L217.303,170.094 L176.851,129.643 C171.605,124.397 163.1,124.397 157.853,129.643 Z" style="stroke:none;fill-rule:nonzero;fill:#333e48;fill-opacity:1;"/>
        </g>
        <g id="Shape4">
            <desc shapeID="4" type="0" basicInfo-basicType="0" basicInfo-roundedRectRadius="12" basicInfo-polygonSides="6" basicInfo-starPoints="5" bounding="rect(-126.252,-159.094,252.504,318.188)" text="" font-familyName="" font-pixelSize="20" font-bold="0" font-underline="0" font-alignment="1" strokeStyle="0" markerStart="0" markerEnd="0" shadowEnabled="0" shadowOffsetX="0" shadowOffsetY="2" shadowBlur="4" shadowOpacity="160" blurEnabled="0" blurRadius="4" transform="matrix(1.20594,0,0,1,159.094,159.094)" pers-center="0,0" pers-size="0,0" pers-start="0,0" pers-end="0,0" locked="0" mesh="" flag=""/>
            <path id="shapePath4" d="M308.697,52.722 L247.768,2.19701 C246.071,0.789993 243.771,0 241.371,0 L15.8865,0 C10.8903,0 6.84192,3.358 6.84192,7.5 L6.84192,310.688 C6.84192,314.83 10.8903,318.188 15.8865,318.188 L302.301,318.188 C307.298,318.188 311.346,314.83 311.346,310.688 L311.346,58.025 C311.346,56.036 310.393,54.129 308.697,52.722 M250.416,25.606 L280.466,50.525 L250.416,50.525 L250.416,25.606 M24.931,15 L232.327,15 L232.327,25.263 L24.931,25.263 L24.931,15 M293.257,303.188 L24.931,303.188 L24.931,40.263 L232.327,40.263 L232.327,58.026 C232.327,62.168 236.375,65.526 241.371,65.526 L293.256,65.526 L293.256,303.188 L293.257,303.188 M98.0578,267.457 L97.7407,267.457 L85.6717,233.392 L64.8536,233.392 L64.8536,281.371 L78.7049,281.371 L78.7049,260.532 C78.7049,257.273 78.4288,252.7 77.8741,246.814 L78.231,246.814 L90.0649,281.371 L104.945,281.371 L116.62,246.88 L116.977,246.88 C116.659,252.087 116.482,255.358 116.444,256.693 C116.404,258.027 116.383,259.242 116.383,260.336 L116.383,281.372 L130.75,281.372 L130.75,233.393 L109.893,233.393 L98.0578,267.457 M232.261,257.841 C231.837,259.154 231.35,260.959 230.795,263.256 C230.242,265.553 229.872,267.468 229.687,268.999 C229.529,266.877 228.632,263.114 226.997,257.709 L219.122,233.391 L201.55,233.391 L220.428,281.37 L238.831,281.37 L257.788,233.391 L240.295,233.391 L232.261,257.841 M169.295,232.637 C160.114,232.637 153.115,234.743 148.301,238.954 C143.486,243.166 141.078,249.264 141.078,257.249 C141.078,265.322 143.499,271.471 148.339,275.693 C153.181,279.916 160.139,282.026 169.217,282.026 C178.425,282.026 185.417,279.926 190.193,275.725 C194.968,271.524 197.356,265.388 197.356,257.314 C197.356,249.219 194.98,243.083 190.232,238.903 C185.482,234.727 178.502,232.637 169.295,232.637 M178.021,267.85 C176.109,270.104 173.173,271.23 169.215,271.23 C161.432,271.23 157.541,266.592 157.541,257.315 C157.541,247.951 161.459,243.269 169.294,243.269 C173.146,243.269 176.042,244.413 177.981,246.698 C179.919,248.985 180.89,252.523 180.89,257.315 C180.891,262.085 179.934,265.597 178.021,267.85 Z" style="stroke:none;fill-rule:nonzero;fill:#333e48;fill-opacity:1;"/>
        </g>
    </g>
</svg>
