<?xml version="1.0"?>
<svg version="1.1" xmlns="http://www.w3.org/2000/svg" xmlns:xlink="http://www.w3.org/1999/xlink" width="200" height="280">
    <desc iVinci="yes" version="4.6" gridStep="20" showGrid="no" snapToGrid="no" codePlatform="0"/>
    <g id="Layer1" name="Layer 2" opacity="1">
        <g id="Shape1">
            <desc shapeID="1" type="0" basicInfo-basicType="1" basicInfo-roundedRectRadius="12" basicInfo-polygonSides="6" basicInfo-starPoints="5" bounding="rect(-92.6439,-135.059,185.288,270.118)" text="" font-familyName="Helvetica" font-pixelSize="20" font-bold="0" font-underline="0" font-alignment="1" strokeStyle="0" markerStart="0" markerEnd="0" shadowEnabled="0" shadowOffsetX="0" shadowOffsetY="2" shadowBlur="4" shadowOpacity="160" blurEnabled="0" blurRadius="4" transform="matrix(1.0794,0,0,1.03658,100,140)" pers-center="0,0" pers-size="0,0" pers-start="0,0" pers-end="0,0" locked="0" mesh="" flag=""/>
            <path id="shapePath1" d="M0,0 L200,0 L200,280 L0,280 L0,0 Z" style="stroke:none;fill-rule:evenodd;fill:#7f92ae;fill-opacity:0.0588235;"/>
        </g>
    </g>
    <g id="Layer2" name="Layer 1" opacity="1">
        <g id="Shape2">
            <desc shapeID="2" type="0" basicInfo-basicType="0" basicInfo-roundedRectRadius="12" basicInfo-polygonSides="6" basicInfo-starPoints="5" bounding="rect(-490,-490,980,980)" text="" font-familyName="" font-pixelSize="20" font-bold="0" font-underline="0" font-alignment="1" strokeStyle="0" markerStart="0" markerEnd="0" shadowEnabled="0" shadowOffsetX="0" shadowOffsetY="2" shadowBlur="4" shadowOpacity="160" blurEnabled="0" blurRadius="4" transform="matrix(0.143691,0,0,0.143691,100,140)" pers-center="0,0" pers-size="0,0" pers-start="0,0" pers-end="0,0" locked="0" mesh="" flag=""/>
            <path id="shapePath2" d="M100,69.5914 C61.1172,69.5914 29.5914,101.117 29.5914,140 C29.5914,178.883 61.1172,210.409 100,210.409 C138.883,210.409 170.409,178.883 170.409,140 C170.409,101.117 138.883,69.5914 100,69.5914 M141.613,190.105 C134.931,189.861 120.792,187.634 114.613,173.782 C112.975,170.103 112.803,167.057 114.613,165.017 C116.769,162.574 119.47,156.007 120.462,150.403 C120.864,148.176 126.238,147.414 126.31,141.638 C128.954,138.75 126.295,133.548 126.31,129.942 C126.339,120.99 127.301,112.44 123.379,106.549 C111.783,89.119 88.5909,89.277 76.6071,106.549 C72.9286,111.837 73.6614,120.947 73.6758,129.942 C73.6758,133.634 70.5577,138.577 73.6758,141.638 C73.6758,147.443 78.7912,147.242 79.524,150.403 C80.8316,156.093 82.441,162.114 85.3723,165.017 C88.2317,167.876 86.6655,169.988 85.3723,173.782 C81.1621,186.154 66.3332,189.875 59.4647,190.953 C44.4921,179.026 34.8792,160.634 34.8792,140 C34.8792,104.034 64.0485,74.8648 100.014,74.8648 C135.98,74.8648 165.135,104.02 165.135,140 C165.135,160.145 155.982,178.164 141.613,190.105 Z" style="stroke:none;fill-rule:nonzero;fill:#17232d;fill-opacity:0.207843;"/>
        </g>
    </g>
</svg>
