<?xml version="1.0"?>
<svg version="1.1" xmlns="http://www.w3.org/2000/svg" xmlns:xlink="http://www.w3.org/1999/xlink" width="512" height="512">
    <desc iVinci="yes" version="4.6" gridStep="20" showGrid="no" snapToGrid="no" codePlatform="0"/>
    <g id="Layer1" name="Layer 2" opacity="1">
        <g id="Shape1">
            <desc shapeID="1" type="0" basicInfo-basicType="2" basicInfo-roundedRectRadius="30" basicInfo-polygonSides="6" basicInfo-starPoints="5" bounding="rect(-227.292,-228.216,454.584,456.432)" text="" font-familyName="Helvetica" font-pixelSize="20" font-bold="0" font-underline="0" font-alignment="1" strokeStyle="0" markerStart="0" markerEnd="0" shadowEnabled="0" shadowOffsetX="0" shadowOffsetY="2" shadowBlur="4" shadowOpacity="160" blurEnabled="0" blurRadius="4" transform="matrix(1,0,0,1,256,256)" pers-center="0,0" pers-size="0,0" pers-start="0,0" pers-end="0,0" locked="0" mesh="" flag=""/>
            <path id="shapePath1" d="M28.7083,57.7844 C28.7083,41.2159 42.1398,27.7844 58.7083,27.7844 L453.292,27.7844 C469.86,27.7844 483.292,41.2159 483.292,57.7844 L483.292,454.216 C483.292,470.784 469.86,484.216 453.292,484.216 L58.7083,484.216 C42.1398,484.216 28.7083,470.784 28.7083,454.216 L28.7083,57.7844 Z" style="stroke:#5e5e5e;stroke-opacity:1;stroke-width:15;stroke-linejoin:miter;stroke-miterlimit:2;stroke-linecap:butt;fill:none;"/>
        </g>
    </g>
    <g id="Layer2" name="Layer 1" opacity="1">
        <g id="Shape2">
            <desc shapeID="2" type="0" basicInfo-basicType="0" basicInfo-roundedRectRadius="12" basicInfo-polygonSides="6" basicInfo-starPoints="5" bounding="rect(-109.241,-37.0117,218.482,74.0234)" text="ORG" font-familyName="Arial Rounded MT Bold" font-pixelSize="100" font-bold="0" font-underline="0" font-alignment="1" strokeStyle="0" markerStart="0" markerEnd="0" shadowEnabled="0" shadowOffsetX="0" shadowOffsetY="2" shadowBlur="4" shadowOpacity="160" blurEnabled="0" blurRadius="4" transform="matrix(1.75287,0,0,1.75287,256,243.306)" pers-center="0,0" pers-size="0,0" pers-start="0,0" pers-end="0,0" locked="0" mesh="" flag=""/>
            <path id="shapePath2" d="M125.54,178.429 C138.549,178.429 149.719,181.068 159.048,186.346 C168.377,191.624 175.438,199.127 180.231,208.856 C185.024,218.585 187.421,230.011 187.421,243.135 C187.421,252.835 186.108,261.65 183.484,269.582 C180.859,277.513 176.922,284.389 171.672,290.209 C166.423,296.029 159.975,300.479 152.329,303.561 C144.683,306.642 135.925,308.182 126.053,308.182 C116.239,308.182 107.452,306.599 99.6919,303.432 C91.9318,300.265 85.4556,295.8 80.2631,290.037 C75.0707,284.274 71.1479,277.342 68.4946,269.239 C65.8414,261.137 64.5147,252.378 64.5147,242.963 C64.5147,233.32 65.8984,224.476 68.6658,216.431 C71.4332,208.385 75.4416,201.538 80.6911,195.889 C85.9406,190.24 92.3312,185.918 99.8631,182.923 C107.395,179.927 115.954,178.429 125.54,178.429 M161.658,242.963 C161.658,233.777 160.175,225.817 157.208,219.084 C154.241,212.351 150.004,207.258 144.498,203.806 C138.992,200.354 132.672,198.628 125.54,198.628 C120.462,198.628 115.768,199.584 111.46,201.495 C107.152,203.407 103.444,206.189 100.334,209.84 C97.2241,213.492 94.7705,218.157 92.9731,223.834 C91.1758,229.512 90.2771,235.888 90.2771,242.963 C90.2771,250.096 91.1758,256.544 92.9731,262.307 C94.7705,268.07 97.3097,272.848 100.591,276.643 C103.871,280.437 107.637,283.276 111.888,285.159 C116.139,287.042 120.804,287.983 125.882,287.983 C132.387,287.983 138.364,286.357 143.813,283.105 C149.262,279.852 153.599,274.831 156.823,268.041 C160.047,261.251 161.658,252.892 161.658,242.963 M243.29,252.378 L234.389,252.378 L234.389,292.691 C234.389,297.997 233.219,301.906 230.88,304.416 C228.54,306.927 225.487,308.182 221.722,308.182 C217.67,308.182 214.532,306.87 212.307,304.245 C210.081,301.621 208.969,297.769 208.969,292.691 L208.969,196.146 C208.969,190.668 210.195,186.703 212.649,184.249 C215.103,181.796 219.068,180.569 224.546,180.569 L265.886,180.569 C271.591,180.569 276.47,180.811 280.521,181.296 C284.572,181.781 288.224,182.766 291.477,184.249 C295.414,185.904 298.894,188.272 301.919,191.353 C304.943,194.434 307.239,198.015 308.808,202.095 C310.378,206.174 311.162,210.497 311.162,215.061 C311.162,224.419 308.523,231.894 303.245,237.486 C297.967,243.078 289.965,247.043 279.237,249.383 C283.745,251.779 288.053,255.317 292.161,259.996 C296.27,264.675 299.936,269.653 303.16,274.931 C306.383,280.209 308.894,284.973 310.691,289.224 C312.489,293.475 313.388,296.4 313.388,297.997 C313.388,299.652 312.86,301.292 311.804,302.919 C310.749,304.545 309.308,305.829 307.482,306.77 C305.656,307.712 303.545,308.182 301.148,308.182 C298.295,308.182 295.899,307.512 293.959,306.171 C292.019,304.83 290.35,303.133 288.952,301.078 C287.554,299.024 285.657,296 283.26,292.006 L273.075,275.059 C269.423,268.84 266.157,264.104 263.275,260.852 C260.394,257.599 257.469,255.374 254.502,254.176 C251.535,252.977 247.798,252.378 243.29,252.378 M257.84,199.655 L234.389,199.655 L234.389,234.148 L257.155,234.148 C263.261,234.148 268.396,233.62 272.561,232.564 C276.727,231.509 279.908,229.711 282.105,227.172 C284.301,224.633 285.4,221.138 285.4,216.688 C285.4,213.207 284.515,210.14 282.747,207.487 C280.978,204.833 278.524,202.851 275.386,201.538 C272.419,200.283 266.57,199.655 257.84,199.655 M447.485,255.031 L447.485,279.082 C447.485,282.277 447.171,284.831 446.544,286.742 C445.916,288.654 444.761,290.38 443.077,291.92 C441.394,293.461 439.24,294.945 436.615,296.371 C429.026,300.479 421.723,303.475 414.705,305.358 C407.686,307.241 400.04,308.182 391.767,308.182 C382.124,308.182 373.336,306.699 365.405,303.732 C357.474,300.765 350.712,296.457 345.121,290.808 C339.529,285.159 335.235,278.312 332.239,270.266 C329.244,262.221 327.746,253.234 327.746,243.306 C327.746,233.549 329.201,224.619 332.111,216.516 C335.021,208.414 339.3,201.538 344.949,195.889 C350.598,190.24 357.474,185.918 365.576,182.923 C373.679,179.927 382.865,178.429 393.136,178.429 C401.581,178.429 409.056,179.556 415.56,181.81 C422.065,184.064 427.343,186.902 431.394,190.326 C435.446,193.75 438.498,197.373 440.552,201.196 C442.607,205.019 443.634,208.414 443.634,211.381 C443.634,214.576 442.45,217.301 440.082,219.555 C437.714,221.809 434.875,222.936 431.566,222.936 C429.74,222.936 427.985,222.508 426.302,221.652 C424.619,220.796 423.206,219.598 422.065,218.057 C418.927,213.15 416.274,209.441 414.105,206.93 C411.937,204.42 409.013,202.309 405.333,200.597 C401.652,198.885 396.959,198.029 391.253,198.029 C385.376,198.029 380.126,199.042 375.505,201.068 C370.883,203.093 366.932,206.032 363.651,209.883 C360.37,213.735 357.859,218.456 356.119,224.048 C354.378,229.64 353.508,235.831 353.508,242.621 C353.508,257.342 356.889,268.669 363.651,276.6 C370.412,284.531 379.841,288.497 391.938,288.497 C397.815,288.497 403.335,287.727 408.499,286.186 C413.663,284.645 418.898,282.449 424.205,279.596 L424.205,259.225 L404.519,259.225 C399.784,259.225 396.203,258.512 393.778,257.086 C391.353,255.659 390.14,253.234 390.14,249.811 C390.14,247.015 391.153,244.704 393.179,242.878 C395.204,241.052 397.958,240.139 401.438,240.139 L430.282,240.139 C433.819,240.139 436.815,240.453 439.269,241.08 C441.722,241.708 443.705,243.106 445.217,245.274 C446.729,247.443 447.485,250.695 447.485,255.031 Z" style="stroke:none;fill-rule:nonzero;fill:#8a8a8a;fill-opacity:1;"/>
        </g>
    </g>
</svg>
