<?xml version="1.0"?>
<svg version="1.1" xmlns="http://www.w3.org/2000/svg" xmlns:xlink="http://www.w3.org/1999/xlink" width="512" height="512">
    <desc iVinci="yes" version="4.6" gridStep="20" showGrid="no" snapToGrid="no" codePlatform="0"/>
    <g id="Layer1" name="Layer 2" opacity="1">
        <g id="Shape1">
            <desc shapeID="1" type="0" basicInfo-basicType="2" basicInfo-roundedRectRadius="30" basicInfo-polygonSides="6" basicInfo-starPoints="5" bounding="rect(-227.292,-228.216,454.584,456.432)" text="" font-familyName="Helvetica" font-pixelSize="20" font-bold="0" font-underline="0" font-alignment="1" strokeStyle="0" markerStart="0" markerEnd="0" shadowEnabled="0" shadowOffsetX="0" shadowOffsetY="2" shadowBlur="4" shadowOpacity="160" blurEnabled="0" blurRadius="4" transform="matrix(1,0,0,1,256.001,256.001)" pers-center="0,0" pers-size="0,0" pers-start="0,0" pers-end="0,0" locked="0" mesh="" flag=""/>
            <path id="shapePath1" d="M28.7083,57.7844 C28.7083,41.2159 42.1398,27.7844 58.7083,27.7844 L453.292,27.7844 C469.86,27.7844 483.292,41.2159 483.292,57.7844 L483.292,454.216 C483.292,470.784 469.86,484.216 453.292,484.216 L58.7083,484.216 C42.1398,484.216 28.7083,470.784 28.7083,454.216 L28.7083,57.7844 Z" style="stroke:#5e5e5e;stroke-opacity:1;stroke-width:15;stroke-linejoin:miter;stroke-miterlimit:2;stroke-linecap:butt;fill:none;"/>
        </g>
    </g>
    <g id="Layer2" name="Layer 1" opacity="1">
        <g id="Shape2">
            <desc shapeID="2" type="0" basicInfo-basicType="0" basicInfo-roundedRectRadius="12" basicInfo-polygonSides="6" basicInfo-starPoints="5" bounding="rect(-256.007,-255.995,512.013,511.99)" text="" font-familyName="" font-pixelSize="20" font-bold="0" font-underline="0" font-alignment="1" strokeStyle="0" markerStart="0" markerEnd="0" shadowEnabled="0" shadowOffsetX="0" shadowOffsetY="2" shadowBlur="4" shadowOpacity="160" blurEnabled="0" blurRadius="4" transform="matrix(0.563479,0,0,0.563479,256.001,256)" pers-center="0,0" pers-size="0,0" pers-start="0,0" pers-end="0,0" locked="0" mesh="" flag=""/>
            <path id="shapePath2" d="M275.578,164.286 L347.714,236.423 L191.073,393.064 L126.757,400.164 C118.147,401.116 110.873,393.836 111.831,385.226 L118.987,320.866 L275.578,164.286 M392.33,153.546 L358.46,119.676 C347.894,109.111 330.759,109.111 320.194,119.676 L288.329,151.54 L360.466,223.677 L392.33,191.812 C402.896,181.241 402.896,164.112 392.33,153.546 Z" style="stroke:none;fill-rule:evenodd;fill:#888888;fill-opacity:1;"/>
        </g>
    </g>
</svg>
