<?xml version="1.0"?>
<svg version="1.1" xmlns="http://www.w3.org/2000/svg" xmlns:xlink="http://www.w3.org/1999/xlink" width="512" height="512">
    <desc iVinci="yes" version="4.6" gridStep="20" showGrid="no" snapToGrid="no" codePlatform="0"/>
    <g id="Layer1" name="Layer 2" opacity="1">
        <g id="Shape1">
            <desc shapeID="1" type="0" basicInfo-basicType="2" basicInfo-roundedRectRadius="30" basicInfo-polygonSides="6" basicInfo-starPoints="5" bounding="rect(-227.292,-228.216,454.584,456.432)" text="" font-familyName="Helvetica" font-pixelSize="20" font-bold="0" font-underline="0" font-alignment="1" strokeStyle="0" markerStart="0" markerEnd="0" shadowEnabled="0" shadowOffsetX="0" shadowOffsetY="2" shadowBlur="4" shadowOpacity="160" blurEnabled="0" blurRadius="4" transform="matrix(1,0,0,1,256,256)" pers-center="0,0" pers-size="0,0" pers-start="0,0" pers-end="0,0" locked="0" mesh="" flag=""/>
            <path id="shapePath1" d="M28.7083,57.7844 C28.7083,41.2159 42.1398,27.7844 58.7083,27.7844 L453.292,27.7844 C469.86,27.7844 483.292,41.2159 483.292,57.7844 L483.292,454.216 C483.292,470.784 469.86,484.216 453.292,484.216 L58.7083,484.216 C42.1398,484.216 28.7083,470.784 28.7083,454.216 L28.7083,57.7844 Z" style="stroke:#5e5e5e;stroke-opacity:1;stroke-width:15;stroke-linejoin:miter;stroke-miterlimit:2;stroke-linecap:butt;fill:none;"/>
        </g>
    </g>
    <g id="Layer2" name="Layer 3" opacity="1">
        <g id="Shape2">
            <desc shapeID="2" type="0" basicInfo-basicType="0" basicInfo-roundedRectRadius="12" basicInfo-polygonSides="6" basicInfo-starPoints="5" bounding="rect(-320,-224,640,448)" text="" font-familyName="" font-pixelSize="20" font-bold="0" font-underline="0" font-alignment="1" strokeStyle="0" markerStart="0" markerEnd="0" shadowEnabled="0" shadowOffsetX="0" shadowOffsetY="2" shadowBlur="4" shadowOpacity="160" blurEnabled="0" blurRadius="4" transform="matrix(0.587772,0,0,0.587772,256,256)" pers-center="0,0" pers-size="0,0" pers-start="0,0" pers-end="0,0" locked="0" mesh="" flag=""/>
            <path id="shapePath2" d="M383.899,238.72 C386.31,232.43 387.661,225.554 387.661,218.382 C387.661,187.23 362.387,161.957 331.235,161.957 C319.656,161.957 308.84,165.483 299.906,171.478 C283.626,143.265 253.238,124.339 218.382,124.339 C166.424,124.339 124.339,166.424 124.339,218.382 C124.339,219.97 124.398,221.557 124.457,223.144 C91.5413,234.723 67.9128,266.11 67.9128,303.022 C67.9128,349.75 105.824,387.661 152.552,387.661 L368.852,387.661 C410.408,387.661 444.087,353.982 444.087,312.426 C444.087,276.043 418.225,245.656 383.899,238.72 M305.785,290.855 L243.833,352.806 C240.189,356.45 234.194,356.45 230.55,352.806 L168.599,290.855 C162.662,284.918 166.894,274.808 175.24,274.808 L213.681,274.808 L213.681,208.978 C213.681,203.806 217.912,199.574 223.085,199.574 L251.297,199.574 C256.47,199.574 260.703,203.806 260.703,208.978 L260.703,274.808 L299.143,274.808 C307.489,274.808 311.721,284.918 305.785,290.855 Z" style="stroke:none;fill-rule:evenodd;fill:#888888;fill-opacity:1;"/>
        </g>
    </g>
</svg>
