<?xml version="1.0"?>
<svg version="1.1" xmlns="http://www.w3.org/2000/svg" xmlns:xlink="http://www.w3.org/1999/xlink" width="512" height="512">
    <desc iVinci="yes" version="4.6" gridStep="20" showGrid="no" snapToGrid="no" codePlatform="0"/>
    <g id="Layer1" name="Layer 2" opacity="1">
        <g id="Shape1">
            <desc shapeID="1" type="0" basicInfo-basicType="2" basicInfo-roundedRectRadius="30" basicInfo-polygonSides="6" basicInfo-starPoints="5" bounding="rect(-227.292,-228.216,454.584,456.432)" text="" font-familyName="Helvetica" font-pixelSize="20" font-bold="0" font-underline="0" font-alignment="1" strokeStyle="0" markerStart="0" markerEnd="0" shadowEnabled="0" shadowOffsetX="0" shadowOffsetY="2" shadowBlur="4" shadowOpacity="160" blurEnabled="0" blurRadius="4" transform="matrix(1,0,0,1,256,256)" pers-center="0,0" pers-size="0,0" pers-start="0,0" pers-end="0,0" locked="0" mesh="" flag=""/>
            <path id="shapePath1" d="M28.7083,57.7844 C28.7083,41.2159 42.1398,27.7844 58.7083,27.7844 L453.292,27.7844 C469.86,27.7844 483.292,41.2159 483.292,57.7844 L483.292,454.216 C483.292,470.784 469.86,484.216 453.292,484.216 L58.7083,484.216 C42.1398,484.216 28.7083,470.784 28.7083,454.216 L28.7083,57.7844 Z" style="stroke:#5e5e5e;stroke-opacity:1;stroke-width:15;stroke-linejoin:miter;stroke-miterlimit:2;stroke-linecap:butt;fill:none;"/>
        </g>
    </g>
    <g id="Layer2" name="Layer 3" opacity="1">
        <g id="Shape2">
            <desc shapeID="2" type="0" basicInfo-basicType="0" basicInfo-roundedRectRadius="12" basicInfo-polygonSides="6" basicInfo-starPoints="5" bounding="rect(-224,-224,448,448)" text="" font-familyName="" font-pixelSize="20" font-bold="0" font-underline="0" font-alignment="1" strokeStyle="0" markerStart="0" markerEnd="0" shadowEnabled="0" shadowOffsetX="0" shadowOffsetY="2" shadowBlur="4" shadowOpacity="160" blurEnabled="0" blurRadius="4" transform="matrix(0.732186,0,0,0.732186,256,256)" pers-center="0,0" pers-size="0,0" pers-start="0,0" pers-end="0,0" locked="0" mesh="" flag=""/>
            <path id="shapePath2" d="M409.716,163.701 L348.299,102.284 C341.708,95.6931 332.769,91.9903 323.448,91.9903 L127.135,91.9903 C107.725,91.9903 91.9903,107.725 91.9903,127.135 L91.9903,384.865 C91.9903,404.275 107.725,420.01 127.135,420.01 L384.865,420.01 C404.275,420.01 420.01,404.275 420.01,384.865 L420.01,188.552 C420.01,179.231 416.307,170.292 409.716,163.701 M291.145,127.135 L291.145,185.71 L197.425,185.71 L197.425,127.135 L291.145,127.135 M380.472,384.865 L131.528,384.865 C129.102,384.865 127.135,382.898 127.135,380.472 L127.135,131.528 C127.135,129.102 129.102,127.135 131.528,127.135 L162.28,127.135 L162.28,203.283 C162.28,212.988 170.148,220.855 179.853,220.855 L308.717,220.855 C318.423,220.855 326.29,212.988 326.29,203.283 L326.29,129.978 L383.578,187.266 C384.402,188.09 384.865,189.208 384.865,190.373 L384.865,380.472 C384.865,382.898 382.898,384.865 380.472,384.865 M256,238.428 C220.472,238.428 191.568,267.332 191.568,302.86 C191.568,338.388 220.472,367.292 256,367.292 C291.528,367.292 320.432,338.388 320.432,302.86 C320.432,267.332 291.528,238.428 256,238.428 M256,332.147 C239.851,332.147 226.713,319.009 226.713,302.86 C226.713,286.711 239.851,273.572 256,273.572 C272.149,273.572 285.287,286.711 285.287,302.86 C285.287,319.009 272.149,332.147 256,332.147 Z" style="stroke:none;fill-rule:nonzero;fill:#888888;fill-opacity:1;"/>
        </g>
    </g>
</svg>
