<?xml version="1.0"?>
<svg version="1.1" xmlns="http://www.w3.org/2000/svg" xmlns:xlink="http://www.w3.org/1999/xlink" width="512" height="512">
    <desc iVinci="yes" version="4.6" gridStep="20" showGrid="no" snapToGrid="no" codePlatform="0"/>
    <g id="Layer1" name="Layer 2" opacity="1">
        <g id="Shape1">
            <desc shapeID="1" type="0" basicInfo-basicType="2" basicInfo-roundedRectRadius="30" basicInfo-polygonSides="6" basicInfo-starPoints="5" bounding="rect(-227.292,-228.216,454.584,456.432)" text="" font-familyName="Helvetica" font-pixelSize="20" font-bold="0" font-underline="0" font-alignment="1" strokeStyle="0" markerStart="0" markerEnd="0" shadowEnabled="0" shadowOffsetX="0" shadowOffsetY="2" shadowBlur="4" shadowOpacity="160" blurEnabled="0" blurRadius="4" transform="matrix(1,0,0,1,256,256)" pers-center="0,0" pers-size="0,0" pers-start="0,0" pers-end="0,0" locked="0" mesh="" flag=""/>
            <path id="shapePath1" d="M28.7083,57.7844 C28.7083,41.2159 42.1398,27.7844 58.7083,27.7844 L453.292,27.7844 C469.86,27.7844 483.292,41.2159 483.292,57.7844 L483.292,454.216 C483.292,470.784 469.86,484.216 453.292,484.216 L58.7083,484.216 C42.1398,484.216 28.7083,470.784 28.7083,454.216 L28.7083,57.7844 Z" style="stroke:#5e5e5e;stroke-opacity:1;stroke-width:15;stroke-linejoin:miter;stroke-miterlimit:2;stroke-linecap:butt;fill:none;"/>
        </g>
    </g>
    <g id="Layer2" name="Layer 1" opacity="1">
        <g id="Shape2">
            <desc shapeID="2" type="0" basicInfo-basicType="0" basicInfo-roundedRectRadius="12" basicInfo-polygonSides="6" basicInfo-starPoints="5" bounding="rect(-473.891,-338.48,947.781,676.96)" text="" font-familyName="" font-pixelSize="20" font-bold="0" font-underline="0" font-alignment="1" strokeStyle="0" markerStart="0" markerEnd="0" shadowEnabled="0" shadowOffsetX="0" shadowOffsetY="2" shadowBlur="4" shadowOpacity="160" blurEnabled="0" blurRadius="4" transform="matrix(0.329222,0,0,0.329222,256.054,212.321)" pers-center="0,0" pers-size="0,0" pers-start="0,0" pers-end="0,0" locked="0" mesh="" flag=""/>
            <path id="shapePath2" d="M325.409,101.775 C324.888,102.295 324.516,103.411 324.516,104.379 C324.516,105.271 327.861,115.089 331.954,126.167 C336.042,137.321 339.391,146.691 339.391,147.063 C339.391,147.435 313.807,147.731 277.148,147.731 C242.194,147.731 210.517,148.028 205.012,148.475 C180.248,150.408 157.568,160.449 138.753,177.848 C121.275,193.987 107.52,219.123 102.611,243.663 C100.455,254.448 99.8586,266.123 100.083,295.051 L100.306,323.756 L122.094,305.461 L143.81,287.242 L143.81,276.757 C143.81,259.206 145.89,247.904 151.099,236.674 C161.212,215.182 179.432,200.532 201.071,196.515 C206.573,195.475 215.794,195.327 273.652,195.475 L339.835,195.699 L332.174,216.522 C328.009,227.976 324.516,238.089 324.516,238.906 C324.516,240.914 326.225,242.402 328.085,242.03 C330.018,241.734 411.375,174.507 411.968,172.722 C412.264,171.906 411.892,170.638 411.076,169.598 C408.771,166.698 328.754,100.886 327.489,100.886 C326.821,100.883 325.929,101.255 325.409,101.775 Z" style="stroke:none;fill-rule:nonzero;fill:#8a8a8a;fill-opacity:1;"/>
        </g>
        <g id="Shape3">
            <desc shapeID="3" type="0" basicInfo-basicType="0" basicInfo-roundedRectRadius="12" basicInfo-polygonSides="6" basicInfo-starPoints="5" bounding="rect(-473.635,-337.534,947.271,675.068)" text="" font-familyName="" font-pixelSize="20" font-bold="0" font-underline="0" font-alignment="1" strokeStyle="0" markerStart="0" markerEnd="0" shadowEnabled="0" shadowOffsetX="0" shadowOffsetY="2" shadowBlur="4" shadowOpacity="160" blurEnabled="0" blurRadius="4" transform="matrix(0.329222,0,0,0.329222,255.862,312.396)" pers-center="0,0" pers-size="0,0" pers-start="0,0" pers-end="0,0" locked="0" mesh="" flag=""/>
            <path id="shapePath3" d="M389.584,219.495 L368.017,237.714 L367.576,253.481 C367.055,270.584 366.163,275.568 361.699,286.274 C354.561,303.229 340.207,317.583 323.252,324.721 C312.395,329.258 312.99,329.258 239.218,329.034 L172.215,328.81 L179.949,307.614 C184.857,294.232 187.61,285.83 187.313,284.786 C186.793,282.63 184.337,281.886 182.256,283.298 C180.472,284.49 106.256,345.84 102.311,349.337 C100.972,350.601 99.9312,352.237 99.9312,353.278 C99.9312,354.617 108.333,361.903 141.202,389.12 C163.883,407.859 183.145,423.329 184.038,423.478 C185.822,423.777 187.682,422.437 187.682,420.801 C187.682,419.981 176.008,387.263 172.436,378.114 C171.988,376.926 176.304,376.85 242.488,376.554 C312.019,376.33 313.06,376.33 320.2,374.693 C335.147,371.273 349.798,364.804 361.919,356.175 C370.025,350.45 382.443,337.88 388.616,329.182 C400.962,311.855 409.736,287.835 411.224,267.384 C411.744,259.723 412.044,201.273 411.52,201.273 C411.299,201.352 401.485,209.529 389.584,219.495 Z" style="stroke:none;fill-rule:nonzero;fill:#8a8a8a;fill-opacity:1;"/>
        </g>
    </g>
</svg>
