<?xml version="1.0"?>
<svg version="1.1" xmlns="http://www.w3.org/2000/svg" xmlns:xlink="http://www.w3.org/1999/xlink" width="512" height="512">
    <desc iVinci="yes" version="4.6" gridStep="20" showGrid="no" snapToGrid="no" codePlatform="0"/>
    <g id="Layer1" name="Layer 2" opacity="1">
        <g id="Shape1">
            <desc shapeID="1" type="0" basicInfo-basicType="2" basicInfo-roundedRectRadius="30" basicInfo-polygonSides="6" basicInfo-starPoints="5" bounding="rect(-227.292,-228.216,454.584,456.432)" text="" font-familyName="Helvetica" font-pixelSize="20" font-bold="0" font-underline="0" font-alignment="1" strokeStyle="0" markerStart="0" markerEnd="0" shadowEnabled="0" shadowOffsetX="0" shadowOffsetY="2" shadowBlur="4" shadowOpacity="160" blurEnabled="0" blurRadius="4" transform="matrix(1,0,0,1,256,256)" pers-center="0,0" pers-size="0,0" pers-start="0,0" pers-end="0,0" locked="0" mesh="" flag=""/>
            <path id="shapePath1" d="M28.7083,57.7844 C28.7083,41.2159 42.1398,27.7844 58.7083,27.7844 L453.292,27.7844 C469.86,27.7844 483.292,41.2159 483.292,57.7844 L483.292,454.216 C483.292,470.784 469.86,484.216 453.292,484.216 L58.7083,484.216 C42.1398,484.216 28.7083,470.784 28.7083,454.216 L28.7083,57.7844 Z" style="stroke:#5e5e5e;stroke-opacity:1;stroke-width:15;stroke-linejoin:miter;stroke-miterlimit:2;stroke-linecap:butt;fill:none;"/>
        </g>
    </g>
    <g id="Layer2" name="Layer 1" opacity="1">
        <g id="Shape2">
            <desc shapeID="2" type="0" basicInfo-basicType="0" basicInfo-roundedRectRadius="12" basicInfo-polygonSides="6" basicInfo-starPoints="5" bounding="rect(-224,-256,448,512)" text="" font-familyName="" font-pixelSize="20" font-bold="0" font-underline="0" font-alignment="1" strokeStyle="0" markerStart="0" markerEnd="0" shadowEnabled="0" shadowOffsetX="0" shadowOffsetY="2" shadowBlur="4" shadowOpacity="160" blurEnabled="0" blurRadius="4" transform="matrix(0.616704,0,0,0.616703,256,256)" pers-center="0,0" pers-size="0,0" pers-start="0,0" pers-end="0,0" locked="0" mesh="" flag=""/>
            <path id="shapePath2" d="M283.135,354.673 L297.936,354.673 C302.023,354.673 305.336,351.359 305.336,347.272 L305.336,214.064 C305.336,209.977 302.023,206.664 297.936,206.664 L283.135,206.664 C279.048,206.664 275.735,209.977 275.735,214.064 L275.735,347.272 C275.735,351.359 279.048,354.673 283.135,354.673 M384.274,147.46 L333.452,147.46 L312.484,112.493 C307.131,103.574 297.49,98.119 287.088,98.124 L224.912,98.124 C214.514,98.1233 204.879,103.578 199.529,112.493 L178.548,147.46 L127.726,147.46 C122.276,147.46 117.858,151.878 117.858,157.327 L117.858,167.195 C117.858,172.644 122.276,177.062 127.726,177.062 L137.593,177.062 L137.593,384.274 C137.593,400.623 150.846,413.876 167.195,413.876 L344.805,413.876 C361.154,413.876 374.407,400.623 374.407,384.274 L374.407,177.062 L384.274,177.062 C389.724,177.062 394.142,172.644 394.142,167.195 L394.142,157.327 C394.142,151.878 389.724,147.46 384.274,147.46 M223.833,129.52 C224.504,128.404 225.712,127.722 227.015,127.726 L284.985,127.726 C286.286,127.724 287.491,128.406 288.161,129.52 L298.929,147.46 L213.071,147.46 L223.833,129.52 M344.805,384.274 L167.195,384.274 L167.195,177.062 L344.805,177.062 L344.805,384.274 M214.064,354.673 L228.865,354.673 C232.952,354.673 236.266,351.359 236.266,347.272 L236.266,214.064 C236.266,209.977 232.952,206.664 228.865,206.664 L214.064,206.664 C209.977,206.664 206.664,209.977 206.664,214.064 L206.664,347.272 C206.664,351.359 209.977,354.673 214.064,354.673 Z" style="stroke:none;fill-rule:nonzero;fill:#888888;fill-opacity:1;"/>
        </g>
    </g>
</svg>
