<?xml version="1.0"?>
<svg version="1.1" xmlns="http://www.w3.org/2000/svg" xmlns:xlink="http://www.w3.org/1999/xlink" width="512" height="512">
    <desc iVinci="yes" version="4.6" gridStep="20" showGrid="no" snapToGrid="no" codePlatform="0"/>
    <g id="Layer1" name="Layer 2" opacity="1">
        <g id="Shape1">
            <desc shapeID="1" type="0" basicInfo-basicType="2" basicInfo-roundedRectRadius="30" basicInfo-polygonSides="6" basicInfo-starPoints="5" bounding="rect(-227.292,-228.216,454.584,456.432)" text="" font-familyName="Helvetica" font-pixelSize="20" font-bold="0" font-underline="0" font-alignment="1" strokeStyle="0" markerStart="0" markerEnd="0" shadowEnabled="0" shadowOffsetX="0" shadowOffsetY="2" shadowBlur="4" shadowOpacity="160" blurEnabled="0" blurRadius="4" transform="matrix(1,0,0,1,256.001,256.001)" pers-center="0,0" pers-size="0,0" pers-start="0,0" pers-end="0,0" locked="0" mesh="" flag=""/>
            <path id="shapePath1" d="M28.7083,57.7844 C28.7083,41.2159 42.1398,27.7844 58.7083,27.7844 L453.292,27.7844 C469.86,27.7844 483.292,41.2159 483.292,57.7844 L483.292,454.216 C483.292,470.784 469.86,484.216 453.292,484.216 L58.7083,484.216 C42.1398,484.216 28.7083,470.784 28.7083,454.216 L28.7083,57.7844 Z" style="stroke:#5e5e5e;stroke-opacity:1;stroke-width:15;stroke-linejoin:miter;stroke-miterlimit:2;stroke-linecap:butt;fill:none;"/>
        </g>
    </g>
    <g id="Layer2" name="Layer 3" opacity="1">
        <g id="Shape2">
            <desc shapeID="2" type="0" basicInfo-basicType="0" basicInfo-roundedRectRadius="12" basicInfo-polygonSides="6" basicInfo-starPoints="5" bounding="rect(-50.9766,-29.6094,101.953,59.2188)" text="RV" font-familyName="Arial Rounded MT Bold" font-pixelSize="80" font-bold="0" font-underline="0" font-alignment="1" strokeStyle="0" markerStart="0" markerEnd="0" shadowEnabled="0" shadowOffsetX="0" shadowOffsetY="2" shadowBlur="4" shadowOpacity="160" blurEnabled="0" blurRadius="4" transform="matrix(3.28182,0,0,3.28182,256,265.915)" pers-center="0,0" pers-size="0,0" pers-start="0,0" pers-end="0,0" locked="0" mesh="" flag=""/>
            <path id="shapePath2" d="M140.111,279.504 L126.778,279.504 L126.778,339.884 C126.778,347.832 125.026,353.687 121.522,357.447 C118.018,361.207 113.446,363.088 107.805,363.088 C101.737,363.088 97.0366,361.122 93.7035,357.191 C90.3704,353.259 88.7039,347.49 88.7039,339.884 L88.7039,195.279 C88.7039,187.074 90.5414,181.134 94.2163,177.46 C97.8913,173.785 103.831,171.947 112.036,171.947 L173.954,171.947 C182.501,171.947 189.808,172.31 195.876,173.037 C201.944,173.763 207.414,175.237 212.285,177.46 C218.182,179.938 223.395,183.485 227.925,188.1 C232.455,192.715 235.895,198.078 238.245,204.188 C240.595,210.299 241.77,216.773 241.77,223.61 C241.77,237.626 237.817,248.822 229.912,257.198 C222.007,265.573 210.02,271.513 193.953,275.017 C200.705,278.606 207.157,283.905 213.311,290.913 C219.464,297.921 224.955,305.378 229.784,313.283 C234.613,321.189 238.373,328.325 241.065,334.692 C243.757,341.059 245.103,345.439 245.103,347.832 C245.103,350.311 244.313,352.768 242.732,355.204 C241.151,357.639 238.993,359.562 236.258,360.972 C233.523,362.383 230.361,363.088 226.771,363.088 C222.498,363.088 218.909,362.083 216.003,360.075 C213.097,358.067 210.597,355.524 208.503,352.447 C206.409,349.371 203.568,344.841 199.978,338.859 L184.723,313.476 C179.253,304.16 174.36,297.067 170.044,292.195 C165.728,287.324 161.348,283.991 156.904,282.196 C152.46,280.401 146.862,279.504 140.111,279.504 M161.904,200.535 L126.778,200.535 L126.778,252.198 L160.878,252.198 C170.023,252.198 177.715,251.407 183.954,249.826 C190.193,248.245 194.957,245.553 198.248,241.75 C201.538,237.947 203.183,232.712 203.183,226.046 C203.183,220.833 201.858,216.239 199.209,212.265 C196.56,208.291 192.885,205.321 188.184,203.355 C183.74,201.475 174.98,200.535 161.904,200.535 M299.074,193.74 L341.635,319.757 L384.324,192.843 C386.547,186.177 388.213,181.54 389.324,178.934 C390.435,176.327 392.273,173.977 394.837,171.883 C397.4,169.789 400.904,168.742 405.349,168.742 C408.596,168.742 411.609,169.554 414.386,171.178 C417.164,172.802 419.343,174.96 420.924,177.652 C422.506,180.344 423.296,183.057 423.296,185.792 C423.296,187.673 423.04,189.702 422.527,191.882 C422.014,194.061 421.373,196.198 420.604,198.291 C419.835,200.385 419.066,202.543 418.296,204.765 L372.787,327.577 C371.163,332.278 369.539,336.743 367.915,340.974 C366.291,345.204 364.411,348.922 362.275,352.127 C360.138,355.332 357.296,357.96 353.75,360.011 C350.203,362.062 345.866,363.088 340.738,363.088 C335.61,363.088 331.273,362.083 327.726,360.075 C324.179,358.067 321.316,355.417 319.137,352.127 C316.957,348.837 315.056,345.098 313.432,340.91 C311.808,336.722 310.184,332.278 308.56,327.577 L263.82,205.791 C263.051,203.569 262.26,201.389 261.448,199.253 C260.636,197.116 259.953,194.809 259.397,192.33 C258.842,189.852 258.564,187.758 258.564,186.049 C258.564,181.69 260.316,177.716 263.82,174.126 C267.324,170.537 271.725,168.742 277.024,168.742 C283.519,168.742 288.113,170.729 290.805,174.703 C293.497,178.677 296.254,185.023 299.074,193.74 Z" style="stroke:none;fill-rule:nonzero;fill:#8a8a8a;fill-opacity:1;"/>
        </g>
    </g>
</svg>
