<?xml version="1.0"?>
<svg version="1.1" xmlns="http://www.w3.org/2000/svg" xmlns:xlink="http://www.w3.org/1999/xlink" width="512" height="512">
    <desc iVinci="yes" version="4.6" gridStep="20" showGrid="no" snapToGrid="no" codePlatform="0"/>
    <g id="Layer1" name="Layer 2" opacity="1">
        <g id="Shape1">
            <desc shapeID="1" type="0" basicInfo-basicType="2" basicInfo-roundedRectRadius="30" basicInfo-polygonSides="6" basicInfo-starPoints="5" bounding="rect(-227.292,-228.216,454.583,456.431)" text="" font-familyName="Helvetica" font-pixelSize="20" font-bold="0" font-underline="0" font-alignment="1" strokeStyle="0" markerStart="0" markerEnd="0" shadowEnabled="0" shadowOffsetX="0" shadowOffsetY="2" shadowBlur="4" shadowOpacity="160" blurEnabled="0" blurRadius="4" transform="matrix(1,0,0,1,256,256)" pers-center="0,0" pers-size="0,0" pers-start="0,0" pers-end="0,0" locked="0" mesh="" flag=""/>
            <path id="shapePath1" d="M28.7083,57.7844 C28.7083,41.2159 42.1398,27.7844 58.7083,27.7844 L453.292,27.7844 C469.86,27.7844 483.292,41.2159 483.292,57.7844 L483.292,454.216 C483.292,470.784 469.86,484.216 453.292,484.216 L58.7083,484.216 C42.1398,484.216 28.7083,470.784 28.7083,454.216 L28.7083,57.7844 Z" style="stroke:#5e5e5e;stroke-opacity:1;stroke-width:15;stroke-linejoin:miter;stroke-miterlimit:2;stroke-linecap:butt;fill:none;"/>
        </g>
    </g>
    <g id="Layer2" name="Layer 1" opacity="1">
        <g id="Shape2">
            <desc shapeID="2" type="0" basicInfo-basicType="0" basicInfo-roundedRectRadius="12" basicInfo-polygonSides="6" basicInfo-starPoints="5" bounding="rect(-224,-224,448,448)" text="" font-familyName="" font-pixelSize="20" font-bold="0" font-underline="0" font-alignment="1" strokeStyle="0" markerStart="0" markerEnd="0" shadowEnabled="0" shadowOffsetX="0" shadowOffsetY="2" shadowBlur="4" shadowOpacity="160" blurEnabled="0" blurRadius="4" transform="matrix(0.707589,0,0,0.707589,256,256)" pers-center="0,0" pers-size="0,0" pers-start="0,0" pers-end="0,0" locked="0" mesh="" flag=""/>
            <path id="shapePath2" d="M97.5,202.223 L97.5,114.482 C97.5,105.071 105.071,97.5 114.482,97.5 L202.223,97.5 C206.893,97.5 210.714,101.321 210.714,105.991 L210.714,134.295 C210.714,138.965 206.893,142.786 202.223,142.786 L142.786,142.786 L142.786,202.223 C142.786,206.893 138.965,210.714 134.295,210.714 L105.991,210.714 C101.321,210.714 97.5,206.893 97.5,202.223 M301.286,105.991 L301.286,134.295 C301.286,138.965 305.107,142.786 309.777,142.786 L369.214,142.786 L369.214,202.223 C369.214,206.893 373.035,210.714 377.705,210.714 L406.009,210.714 C410.679,210.714 414.5,206.893 414.5,202.223 L414.5,114.482 C414.5,105.071 406.929,97.5 397.518,97.5 L309.777,97.5 C305.107,97.5 301.286,101.321 301.286,105.991 M406.009,301.286 L377.705,301.286 C373.035,301.286 369.214,305.107 369.214,309.777 L369.214,369.214 L309.777,369.214 C305.107,369.214 301.286,373.035 301.286,377.705 L301.286,406.009 C301.286,410.679 305.107,414.5 309.777,414.5 L397.518,414.5 C406.929,414.5 414.5,406.929 414.5,397.518 L414.5,309.777 C414.5,305.107 410.679,301.286 406.009,301.286 M210.714,406.009 L210.714,377.705 C210.714,373.035 206.893,369.214 202.223,369.214 L142.786,369.214 L142.786,309.777 C142.786,305.107 138.965,301.286 134.295,301.286 L105.991,301.286 C101.321,301.286 97.5,305.107 97.5,309.777 L97.5,397.518 C97.5,406.929 105.071,414.5 114.482,414.5 L202.223,414.5 C206.893,414.5 210.714,410.679 210.714,406.009 Z" style="stroke:none;fill-rule:evenodd;fill:#8a8a8a;fill-opacity:1;"/>
        </g>
    </g>
</svg>
