<svg xmlns="http://www.w3.org/2000/svg" xmlns:xlink="http://www.w3.org/1999/xlink" viewBox="0 0 510.2 488.7"><defs><clipPath id="a" transform="translate(-0.9 -8.9)"><polygon points="379.1 443.8 199.6 322.8 20.1 201.7 -34.4 282.5 -88.9 363.4 90.6 484.4 270.1 605.5 324.6 524.7 379.1 443.8" fill="none"/></clipPath><clipPath id="b" transform="translate(-0.9 -8.9)"><polygon points="515.3 258.7 328 132.4 140.7 6 24.2 178.8 -92.3 351.5 95 477.8 282.3 604.1 398.8 431.4 515.3 258.7" fill="none"/></clipPath></defs><title>projCam_v05</title><g style="isolation:isolate"><g clip-path="url(#a)"><path d="M338.7,426.8a8.3,8.3,0,0,1,1.5,4.8c-.2,1.6-1.2,3-3.6,3.4L216.5,454.7l-120,19.7L70.3,356.1,44.2,237.8c-.5-2.5.4-3.9,1.8-4.7a8.5,8.5,0,0,1,5-.4l143.9,97,143.8,97.1M89.9,484H90a104.4,104.4,0,0,0,19.8,10.8c6,2.3,11.1,3.2,14.8,2.6l121.1-19.9,121.1-19.8c4-.7,5.9-3,5.8-6.5s-2.3-7.9-6.5-12.8a92.2,92.2,0,0,0-8.3-8.1,121.5,121.5,0,0,0-10.8-8.1L199.6,322.8,52.2,223.3a130.7,130.7,0,0,0-11.6-6.9A66.8,66.8,0,0,0,30,211.8c-6.1-2.1-11.1-2.5-14.3-1.3s-4.7,3.8-3.8,7.8L38.2,337.5,64.6,456.8c.8,3.7,3.6,8.1,7.9,12.8A103.2,103.2,0,0,0,89.9,484" transform="translate(-0.9 -8.9)" fill="rgba(0, 0, 0, 0.5)"/></g></g><g style="isolation:isolate"><g clip-path="url(#b)"><path d="M468.5,252.1a11.6,11.6,0,0,1-.4,6.8,12.2,12.2,0,0,1-5.9,6.9L285.4,361.4,108.5,457.1l22.7-199.6L153.9,58a12.5,12.5,0,0,1,10.3-10.9L316.4,149.6,468.5,252.1M94.6,477.6h.1a50.9,50.9,0,0,0,21.4,8.5,32,32,0,0,0,19.3-3.1l177.3-95.9L490,291.3a24,24,0,0,0,11.7-13.8,28.7,28.7,0,0,0-.8-19.1,42.6,42.6,0,0,0-7.1-11.8,52.2,52.2,0,0,0-11.3-10h0L327.9,132.4,173.4,28.3a54.8,54.8,0,0,0-13.5-6.7,41,41,0,0,0-13.6-2.1,28,28,0,0,0-18,6.3,24.6,24.6,0,0,0-8.4,16l-22.8,200L74.4,441.7c-.8,6.4.8,13,4.3,19.2s9,11.9,15.9,16.7" transform="translate(-0.9 -8.9)" fill="rgba(0, 0, 0, 0.5)"/></g></g><path d="M360.4,467.7a53.5,53.5,0,0,1-29.7-9.4L24,251.4a53,53,0,0,1-20.5-26c-4.5-12.7-3-26,4-36.4L117.2,26.3C124.3,15.9,136,9.6,149.4,9c10.9-.6,22.2,2.8,31.9,9.3L488,225.1c9.6,6.6,17,15.8,20.6,26.1,4.4,12.7,2.9,25.9-4.1,36.4L394.8,450.2c-7,10.5-18.8,16.8-32.2,17.4ZM52.6,210.9l305,205.7L459.4,265.7,154.4,60Zm409.2,56.9Zm-411.6-59Z" transform="translate(-0.9 -8.9)" fill="rgba(0, 0, 0, 0.5)"/></svg>
