<?xml version="1.0"?>
<svg version="1.1" xmlns="http://www.w3.org/2000/svg" xmlns:xlink="http://www.w3.org/1999/xlink" width="512" height="512">
    <desc iVinci="yes" version="4.6" gridStep="20" showGrid="no" snapToGrid="no" codePlatform="0"/>
    <g id="Layer1" name="Layer 1" opacity="1">
        <g id="Shape1">
            <desc shapeID="1" type="0" basicInfo-basicType="0" basicInfo-roundedRectRadius="12" basicInfo-polygonSides="6" basicInfo-starPoints="5" bounding="rect(-176.552,-176.552,353.104,353.104)" text="" font-familyName="" font-pixelSize="20" font-bold="0" font-underline="0" font-alignment="1" strokeStyle="0" markerStart="0" markerEnd="0" shadowEnabled="0" shadowOffsetX="0" shadowOffsetY="2" shadowBlur="4" shadowOpacity="160" blurEnabled="0" blurRadius="4" transform="matrix(1,0,0,1,256,256)" pers-center="0,0" pers-size="0,0" pers-start="0,0" pers-end="0,0" locked="0" mesh="" flag=""/>
            <path id="shapePath1" d="M432.552,256 C432.552,353.507 353.507,432.552 256,432.552 C158.493,432.552 79.448,353.507 79.448,256 C79.448,158.493 158.493,79.448 256,79.448 C353.507,79.448 432.552,158.493 432.552,256 Z" style="stroke:none;fill-rule:evenodd;fill:#5b5d6e;fill-opacity:1;"/>
        </g>
        <g id="Shape2">
            <desc shapeID="2" type="0" basicInfo-basicType="0" basicInfo-roundedRectRadius="12" basicInfo-polygonSides="6" basicInfo-starPoints="5" bounding="rect(-158.897,-158.897,317.794,317.794)" text="" font-familyName="" font-pixelSize="20" font-bold="0" font-underline="0" font-alignment="1" strokeStyle="0" markerStart="0" markerEnd="0" shadowEnabled="0" shadowOffsetX="0" shadowOffsetY="2" shadowBlur="4" shadowOpacity="160" blurEnabled="0" blurRadius="4" transform="matrix(1,0,0,1,256,256)" pers-center="0,0" pers-size="0,0" pers-start="0,0" pers-end="0,0" locked="0" mesh="" flag=""/>
            <path id="shapePath2" d="M414.897,256 C414.897,343.756 343.756,414.897 256,414.897 C168.244,414.897 97.103,343.756 97.103,256 C97.103,168.244 168.244,97.103 256,97.103 C343.756,97.103 414.897,168.244 414.897,256 Z" style="stroke:none;fill-rule:evenodd;fill:#464655;fill-opacity:1;"/>
        </g>
        <g id="Shape3">
            <desc shapeID="3" type="0" basicInfo-basicType="0" basicInfo-roundedRectRadius="12" basicInfo-polygonSides="6" basicInfo-starPoints="5" bounding="rect(-256,-256,512,512)" text="" font-familyName="" font-pixelSize="20" font-bold="0" font-underline="0" font-alignment="1" strokeStyle="0" markerStart="0" markerEnd="0" shadowEnabled="0" shadowOffsetX="0" shadowOffsetY="2" shadowBlur="4" shadowOpacity="160" blurEnabled="0" blurRadius="4" transform="matrix(1,0,0,1,256,256)" pers-center="0,0" pers-size="0,0" pers-start="0,0" pers-end="0,0" locked="0" mesh="" flag=""/>
            <path id="shapePath3" d="M256,0 C114.615,0 0,114.615 0,256 C0,397.385 114.615,512 256,512 C397.385,512 512,397.385 512,256 C512,114.615 397.385,0 256,0 M256,35.31 C295.003,35.31 326.621,66.928 326.621,105.931 C326.621,144.934 295.003,176.552 256,176.552 C216.997,176.552 185.379,144.934 185.379,105.931 C185.379,66.928 216.998,35.31 256,35.31 M114.759,326.621 C75.757,326.621 44.138,295.003 44.138,256 C44.138,216.997 75.756,185.379 114.759,185.379 C153.762,185.379 185.38,216.997 185.38,256 C185.38,295.003 153.761,326.621 114.759,326.621 M256,467.862 C216.998,467.862 185.379,436.244 185.379,397.241 C185.379,358.238 216.997,326.62 256,326.62 C295.003,326.62 326.621,358.238 326.621,397.241 C326.621,436.244 295.003,467.862 256,467.862 M397.241,326.621 C358.239,326.621 326.62,295.003 326.62,256 C326.62,216.997 358.238,185.379 397.241,185.379 C436.244,185.379 467.862,216.997 467.862,256 C467.862,295.003 436.244,326.621 397.241,326.621 Z" style="stroke:none;fill-rule:nonzero;fill:#7f8698;fill-opacity:1;"/>
        </g>
        <g id="Shape4">
            <desc shapeID="4" type="0" basicInfo-basicType="0" basicInfo-roundedRectRadius="12" basicInfo-polygonSides="6" basicInfo-starPoints="5" bounding="rect(-35.31,-35.31,70.62,70.62)" text="" font-familyName="" font-pixelSize="20" font-bold="0" font-underline="0" font-alignment="1" strokeStyle="0" markerStart="0" markerEnd="0" shadowEnabled="0" shadowOffsetX="0" shadowOffsetY="2" shadowBlur="4" shadowOpacity="160" blurEnabled="0" blurRadius="4" transform="matrix(1,0,0,1,256,256)" pers-center="0,0" pers-size="0,0" pers-start="0,0" pers-end="0,0" locked="0" mesh="" flag=""/>
            <path id="shapePath4" d="M291.31,256 C291.31,275.501 275.501,291.31 256,291.31 C236.499,291.31 220.69,275.501 220.69,256 C220.69,236.499 236.499,220.69 256,220.69 C275.501,220.69 291.31,236.499 291.31,256 Z" style="stroke:none;fill-rule:evenodd;fill:#c7cfe2;fill-opacity:1;"/>
        </g>
        <g id="Shape5">
            <desc shapeID="5" type="0" basicInfo-basicType="0" basicInfo-roundedRectRadius="12" basicInfo-polygonSides="6" basicInfo-starPoints="5" bounding="rect(-17.655,-17.655,35.31,35.31)" text="" font-familyName="" font-pixelSize="20" font-bold="0" font-underline="0" font-alignment="1" strokeStyle="0" markerStart="0" markerEnd="0" shadowEnabled="0" shadowOffsetX="0" shadowOffsetY="2" shadowBlur="4" shadowOpacity="160" blurEnabled="0" blurRadius="4" transform="matrix(1,0,0,1,256,256)" pers-center="0,0" pers-size="0,0" pers-start="0,0" pers-end="0,0" locked="0" mesh="" flag=""/>
            <path id="shapePath5" d="M273.655,256 C273.655,265.751 265.751,273.655 256,273.655 C246.249,273.655 238.345,265.751 238.345,256 C238.345,246.249 246.249,238.345 256,238.345 C265.751,238.345 273.655,246.249 273.655,256 Z" style="stroke:none;fill-rule:evenodd;fill:#5b5d6e;fill-opacity:1;"/>
        </g>
        <g id="Shape6">
            <desc shapeID="6" type="0" basicInfo-basicType="0" basicInfo-roundedRectRadius="12" basicInfo-polygonSides="6" basicInfo-starPoints="5" bounding="rect(-61.793,-61.793,123.586,123.586)" text="" font-familyName="" font-pixelSize="20" font-bold="0" font-underline="0" font-alignment="1" strokeStyle="0" markerStart="0" markerEnd="0" shadowEnabled="0" shadowOffsetX="0" shadowOffsetY="2" shadowBlur="4" shadowOpacity="160" blurEnabled="0" blurRadius="4" transform="matrix(1,0,0,1,150.069,150.069)" pers-center="0,0" pers-size="0,0" pers-start="0,0" pers-end="0,0" locked="0" mesh="" flag=""/>
            <path id="shapePath6" d="M203.034,211.862 C200.775,211.862 198.516,211 196.793,209.276 L90.862,103.345 C87.414,99.897 87.414,94.31 90.862,90.862 C94.31,87.414 99.897,87.414 103.345,90.862 L209.276,196.793 C212.724,200.241 212.724,205.828 209.276,209.276 C207.552,211 205.293,211.862 203.034,211.862 Z" style="stroke:none;fill-rule:nonzero;fill:#c7cfe2;fill-opacity:1;"/>
        </g>
        <g id="Shape7">
            <desc shapeID="7" type="0" basicInfo-basicType="0" basicInfo-roundedRectRadius="12" basicInfo-polygonSides="6" basicInfo-starPoints="5" bounding="rect(-61.793,-61.793,123.586,123.586)" text="" font-familyName="" font-pixelSize="20" font-bold="0" font-underline="0" font-alignment="1" strokeStyle="0" markerStart="0" markerEnd="0" shadowEnabled="0" shadowOffsetX="0" shadowOffsetY="2" shadowBlur="4" shadowOpacity="160" blurEnabled="0" blurRadius="4" transform="matrix(1,0,0,1,361.931,361.931)" pers-center="0,0" pers-size="0,0" pers-start="0,0" pers-end="0,0" locked="0" mesh="" flag=""/>
            <path id="shapePath7" d="M414.897,423.724 C412.638,423.724 410.379,422.862 408.656,421.138 L302.724,315.207 C299.276,311.759 299.276,306.172 302.724,302.724 C306.172,299.276 311.759,299.276 315.207,302.724 L421.138,408.655 C424.586,412.103 424.586,417.69 421.138,421.138 C419.414,422.862 417.155,423.724 414.897,423.724 Z" style="stroke:none;fill-rule:nonzero;fill:#c7cfe2;fill-opacity:1;"/>
        </g>
        <g id="Shape8">
            <desc shapeID="8" type="0" basicInfo-basicType="0" basicInfo-roundedRectRadius="12" basicInfo-polygonSides="6" basicInfo-starPoints="5" bounding="rect(-61.7925,-61.7935,123.585,123.587)" text="" font-familyName="" font-pixelSize="20" font-bold="0" font-underline="0" font-alignment="1" strokeStyle="0" markerStart="0" markerEnd="0" shadowEnabled="0" shadowOffsetX="0" shadowOffsetY="2" shadowBlur="4" shadowOpacity="160" blurEnabled="0" blurRadius="4" transform="matrix(1,0,0,1,361.932,150.068)" pers-center="0,0" pers-size="0,0" pers-start="0,0" pers-end="0,0" locked="0" mesh="" flag=""/>
            <path id="shapePath8" d="M308.966,211.862 C306.707,211.862 304.448,211 302.725,209.276 C299.277,205.828 299.277,200.241 302.725,196.793 L408.655,90.861 C412.103,87.413 417.69,87.413 421.138,90.861 C424.586,94.309 424.586,99.896 421.138,103.344 L315.208,209.276 C313.483,211 311.224,211.862 308.966,211.862 Z" style="stroke:none;fill-rule:nonzero;fill:#c7cfe2;fill-opacity:1;"/>
        </g>
        <g id="Shape9">
            <desc shapeID="9" type="0" basicInfo-basicType="0" basicInfo-roundedRectRadius="12" basicInfo-polygonSides="6" basicInfo-starPoints="5" bounding="rect(-61.793,-61.793,123.586,123.586)" text="" font-familyName="" font-pixelSize="20" font-bold="0" font-underline="0" font-alignment="1" strokeStyle="0" markerStart="0" markerEnd="0" shadowEnabled="0" shadowOffsetX="0" shadowOffsetY="2" shadowBlur="4" shadowOpacity="160" blurEnabled="0" blurRadius="4" transform="matrix(1,0,0,1,150.069,361.931)" pers-center="0,0" pers-size="0,0" pers-start="0,0" pers-end="0,0" locked="0" mesh="" flag=""/>
            <path id="shapePath9" d="M97.103,423.724 C94.844,423.724 92.585,422.862 90.862,421.138 C87.414,417.69 87.414,412.103 90.862,408.655 L196.793,302.724 C200.241,299.276 205.828,299.276 209.276,302.724 C212.724,306.172 212.724,311.759 209.276,315.207 L103.346,421.138 C101.621,422.862 99.362,423.724 97.103,423.724 Z" style="stroke:none;fill-rule:nonzero;fill:#c7cfe2;fill-opacity:1;"/>
        </g>
    </g>
</svg>
