<?xml version="1.0"?>
<svg version="1.1" xmlns="http://www.w3.org/2000/svg" xmlns:xlink="http://www.w3.org/1999/xlink" width="150" height="150">
    <desc iVinci="yes" version="4.6" gridStep="20" showGrid="no" snapToGrid="no" codePlatform="0"/>
    <g id="Layer1" name="Layer 2" opacity="1">
        <g id="Shape1">
            <desc shapeID="1" type="0" basicInfo-basicType="0" basicInfo-roundedRectRadius="12" basicInfo-polygonSides="6" basicInfo-starPoints="5" bounding="rect(-246.5,-249,493,498)" text="" font-familyName="Helvetica" font-pixelSize="20" font-bold="0" font-underline="0" font-alignment="1" strokeStyle="0" markerStart="0" markerEnd="0" shadowEnabled="0" shadowOffsetX="0" shadowOffsetY="2" shadowBlur="4" shadowOpacity="160" blurEnabled="0" blurRadius="4" transform="matrix(0.301832,0,0,0.298802,75.0739,75.0739)" pers-center="0,0" pers-size="0,0" pers-start="0,0" pers-end="0,0" locked="0" mesh="" flag=""/>
            <path id="shapePath1" d="M0.672211,33.5404 C0.672211,15.4629 15.6129,0.672226 33.8738,0.672226 L116.274,0.672226 C134.535,0.672226 149.476,15.4629 149.476,33.5404 L149.476,116.607 C149.476,134.685 134.535,149.476 116.274,149.476 L33.8738,149.476 C15.6129,149.476 0.672211,134.685 0.672211,116.607 L0.672211,33.5404 M106.615,95.243 C106.615,88.52 112.048,83.1416 118.689,83.1416 L123.971,83.1416 C130.611,83.1416 136.195,88.52 136.195,95.243 L136.195,100.323 C136.195,107.046 130.611,112.424 123.971,112.424 L118.689,112.424 C112.048,112.424 106.615,107.046 106.615,100.323 L106.615,95.243 M15.6129,57.594 C15.6129,35.4827 33.7229,17.5545 56.0585,17.5545 L91.5238,17.5545 C105.257,17.5545 117.33,24.2776 124.725,34.7356 C113.105,43.2515 103.597,57.594 96.6549,74.4763 C92.4293,68.6497 82.6197,66.7075 75.5266,66.7075 C71.6028,66.7075 66.1698,64.7653 66.1698,60.1338 C66.1698,54.3072 71.9046,54.0084 75.8285,53.859 C84.8834,53.7096 88.5054,58.1916 88.5054,58.1916 L99.8242,46.8371 C99.8242,46.8371 89.8637,37.5743 74.1684,38.3213 C65.1134,38.7695 56.6621,42.0563 52.4365,48.7793 C47.909,55.8012 47.0035,66.4087 51.8328,73.1317 C59.6804,84.3368 73.4138,80.4523 81.1105,84.3368 C84.2798,85.8308 84.2798,91.6574 81.4124,93.5996 C78.394,95.6912 75.3757,96.4383 67.3772,95.6912 C63.4533,95.243 56.6621,90.9104 56.6621,90.9104 L45.1925,102.115 C45.1925,102.115 56.5112,113.022 75.0739,111.677 C79.7523,111.229 83.5252,110.482 86.5435,109.436 C85.0344,117.056 84.1289,124.824 83.6761,132.593 L56.0585,132.593 C33.7229,132.593 15.6129,114.665 15.6129,92.5538 L15.6129,57.594 Z" style="stroke:none;fill-rule:evenodd;fill:#000000;fill-opacity:1;"/>
        </g>
    </g>
</svg>
