<?xml version="1.0"?>
<svg version="1.1" xmlns="http://www.w3.org/2000/svg" xmlns:xlink="http://www.w3.org/1999/xlink" width="1024" height="512">
    <desc iVinci="yes" version="4.6" gridStep="20" showGrid="no" snapToGrid="no" codePlatform="0"/>
    <g id="Layer1" name="Layer 2" opacity="1">
        <g id="Shape1">
            <desc shapeID="1" type="0" basicInfo-basicType="0" basicInfo-roundedRectRadius="12" basicInfo-polygonSides="6" basicInfo-starPoints="5" bounding="rect(-160.534,-47.3528,321.067,94.7056)" text="" font-familyName="Helvetica" font-pixelSize="20" font-bold="0" font-underline="0" font-alignment="1" strokeStyle="0" markerStart="0" markerEnd="0" shadowEnabled="0" shadowOffsetX="0" shadowOffsetY="2" shadowBlur="4" shadowOpacity="160" blurEnabled="0" blurRadius="4" transform="matrix(3.09141,0,0,3.09141,512,256)" pers-center="0,0" pers-size="0,0" pers-start="0,0" pers-end="0,0" locked="0" mesh="" flag=""/>
            <path id="shapePath1" d="M15.7251,367.756 C15.7251,367.756 37.9477,367.756 37.9477,367.756 C37.9477,367.756 47.4021,367.166 50.6735,370.17 C55.8882,376.605 60.2771,390.391 65.8283,396.644 C68.6609,399.835 77.1248,400.399 77.1248,400.399 C77.1248,400.399 415.504,399.66 415.504,399.66 C415.504,399.66 424.729,398.543 429.708,390.469 C443.406,368.258 464.506,319.751 475.24,298.451 C480.911,287.198 488.491,287.198 488.491,287.198 C488.491,287.198 533.473,287.198 533.473,287.198 C533.473,287.198 540.756,285.851 543.238,290.989 C552.467,310.096 575,362.241 590.472,387.236 C597.361,398.366 601.75,400.142 609.442,400.399 C724.53,404.242 938.76,401.33 938.76,401.33 C938.76,401.33 950.932,401.11 956.941,396.057 C968.073,386.698 971.697,367.756 985.642,367.756 C992.198,367.756 1008.27,367.166 1008.27,367.166 C1008.27,367.166 1007.25,109.613 1007.25,109.613 C1007.25,109.613 15.7251,111.721 15.7251,111.721 C15.7251,111.721 15.7251,367.756 15.7251,367.756 Z" style="stroke:none;fill-rule:evenodd;fill:#565455;fill-opacity:1;"/>
        </g>
        <g id="Shape2">
            <desc shapeID="2" type="0" basicInfo-basicType="2" basicInfo-roundedRectRadius="12" basicInfo-polygonSides="6" basicInfo-starPoints="5" bounding="rect(-48.7633,-31.7394,97.5266,63.4789)" text="" font-familyName="Helvetica" font-pixelSize="20" font-bold="0" font-underline="0" font-alignment="1" strokeStyle="0" markerStart="0" markerEnd="0" shadowEnabled="0" shadowOffsetX="0" shadowOffsetY="2" shadowBlur="4" shadowOpacity="160" blurEnabled="0" blurRadius="4" transform="matrix(3.09141,0,0,3.09141,248.47,255.21)" pers-center="0,0" pers-size="0,0" pers-start="0,0" pers-end="0,0" locked="0" mesh="" flag=""/>
            <path id="shapePath2" d="M97.7222,194.187 C97.7222,173.699 114.331,157.09 134.819,157.09 L362.12,157.09 C382.608,157.09 399.217,173.699 399.217,194.187 L399.217,316.232 C399.217,336.72 382.608,353.329 362.12,353.329 L134.819,353.329 C114.331,353.329 97.7222,336.72 97.7222,316.232 L97.7222,194.187 Z" style="stroke:none;fill-rule:evenodd;fill:#21acec;fill-opacity:1;"/>
        </g>
        <g id="Shape3">
            <desc shapeID="3" type="0" basicInfo-basicType="2" basicInfo-roundedRectRadius="12" basicInfo-polygonSides="6" basicInfo-starPoints="5" bounding="rect(-48.7633,-31.7394,97.5266,63.4789)" text="" font-familyName="Helvetica" font-pixelSize="20" font-bold="0" font-underline="0" font-alignment="1" strokeStyle="0" markerStart="0" markerEnd="0" shadowEnabled="0" shadowOffsetX="0" shadowOffsetY="2" shadowBlur="4" shadowOpacity="160" blurEnabled="0" blurRadius="4" transform="matrix(3.09141,0,0,3.09141,777.744,255.21)" pers-center="0,0" pers-size="0,0" pers-start="0,0" pers-end="0,0" locked="0" mesh="" flag=""/>
            <path id="shapePath3" d="M626.997,194.187 C626.997,173.699 643.606,157.09 664.094,157.09 L891.395,157.09 C911.883,157.09 928.492,173.699 928.492,194.187 L928.492,316.232 C928.492,336.72 911.883,353.329 891.395,353.329 L664.094,353.329 C643.606,353.329 626.997,336.72 626.997,316.232 L626.997,194.187 Z" style="stroke:none;fill-rule:evenodd;fill:#e05d4b;fill-opacity:1;"/>
        </g>
    </g>
</svg>
