<?xml version="1.0" encoding="utf-8"?>
<!-- Svg Vector Icons : http://www.onlinewebfonts.com/icon -->
<!DOCTYPE svg PUBLIC "-//W3C//DTD SVG 1.1//EN" "http://www.w3.org/Graphics/SVG/1.1/DTD/svg11.dtd">
<svg version="1.1" xmlns="http://www.w3.org/2000/svg" xmlns:xlink="http://www.w3.org/1999/xlink" x="0px" y="0px" viewBox="0 0 1000 1000" enable-background="new 0 0 1000 1000" xml:space="preserve">
<metadata> Svg Vector Icons : http://www.onlinewebfonts.com/icon </metadata>
<g><path d="M500,10C229.4,10,10,229.4,10,500c0,270.6,219.4,490,490,490c270.6,0,490-219.4,490-490C990,229.4,770.6,10,500,10z M353.3,314.1L353.3,314.1l117.6-130.7l0,0c7.2-8,17.6-13,29.1-13s22,5,29.1,13v0l117.6,130.7h0c6.3,6.9,10.1,16.1,10.1,26.2c0,21.6-17.6,39.2-39.2,39.2c-11.6,0-22-5-29.1-13l0,0l-49.3-54.7V569c0,21.7-17.5,39.2-39.2,39.2c-21.6,0-39.2-17.6-39.2-39.2V311.8l-49.3,54.7c-7.2,8-17.6,13-29.1,13c-21.6,0-39.2-17.5-39.2-39.2C343.2,330.2,347,321.1,353.3,314.1z M839.7,762.5c0,21.7-17.5,39.2-39.2,39.2h-601c-21.6,0-39.2-17.5-39.2-39.2v-196c0-21.6,17.5-39.2,39.2-39.2s39.2,17.6,39.2,39.2v156.8h522.6V566.5c0-21.6,17.6-39.2,39.2-39.2c21.7,0,39.2,17.6,39.2,39.2L839.7,762.5L839.7,762.5z"/></g>
</svg>
