<?xml version="1.0"?>
<svg version="1.1" xmlns="http://www.w3.org/2000/svg" xmlns:xlink="http://www.w3.org/1999/xlink" width="512" height="512">
    <desc iVinci="yes" version="4.6" gridStep="20" showGrid="no" snapToGrid="no" codePlatform="0"/>
    <g id="Layer1" name="Layer 1" opacity="1">
        <g id="Shape1">
            <desc shapeID="1" type="0" basicInfo-basicType="0" basicInfo-roundedRectRadius="12" basicInfo-polygonSides="6" basicInfo-starPoints="5" bounding="rect(-45.0001,-31.3098,90.0001,62.6196)" text="" font-familyName="" font-pixelSize="20" font-bold="0" font-underline="0" font-alignment="1" strokeStyle="0" markerStart="0" markerEnd="0" shadowEnabled="0" shadowOffsetX="0" shadowOffsetY="2" shadowBlur="4" shadowOpacity="160" blurEnabled="0" blurRadius="4" transform="matrix(4.74637,0,0,4.74637,256,268.521)" pers-center="0,0" pers-size="0,0" pers-start="0,0" pers-end="0,0" locked="0" mesh="" flag=""/>
            <path id="shapePath1" d="M469.293,119.913 C469.293,119.913 403.009,119.913 380.982,119.913 L374.659,121 L374.659,129.486 C374.659,130.483 377.673,131.318 378.509,131.94 C379.306,132.614 381.466,132.98 382.358,132.98 L390.36,133.378 C399.435,133.806 402.198,135.775 405.734,139.098 C409.203,142.539 409.773,148.377 407.068,156.583 L329.013,360.34 L326.033,359.448 L276.452,247.923 C277.169,246.247 277.601,245.307 277.601,245.307 L318.196,161.876 C322.914,153.076 327.485,145.211 329.806,141.547 C334.049,134.864 336.109,133.601 347.667,133.018 C350.03,133.018 350.932,131.86 350.932,129.515 L350.932,121.076 L350.339,120.169 C350.339,120.169 301.812,120.003 279.718,120.169 L279.732,121.038 L279.732,129.482 C279.732,130.512 279.162,131.333 279.945,131.954 C280.781,132.628 281.132,132.975 282.029,132.975 L285.337,133.397 C294.365,133.825 298.409,136.416 299.633,138.044 C301.793,140.963 302.804,144.077 297.573,156.607 L266.319,225.05 L238.073,161.562 C228.813,141.276 226.52,134.997 240.484,133.825 L244.234,132.956 C246.92,132.956 246.503,131.893 246.503,129.876 L246.503,121 L246.222,120.274 C246.222,120.274 194.487,120.274 170.883,120.288 L170.565,121.156 L170.565,130.056 C170.565,132.054 172.535,132.567 176.19,133.117 C189.266,134.997 189.038,136.501 201.958,164.662 C203.89,168.881 209.595,181.606 209.595,181.606 L239.041,245.165 C239.041,245.165 242.383,253.329 247.608,266.001 L204.815,359.804 L202.371,359.111 C202.371,359.111 135.964,205.243 116.76,153.755 C114.738,148.453 113.86,144.485 113.86,142.04 C113.86,136.81 118.151,133.976 126.733,133.597 L139.79,133.127 C142.462,133.127 146.833,132.007 146.833,129.676 L146.833,121.237 L142.899,120.364 C142.899,120.364 61.5458,120.264 45.1139,120.364 L42.4132,121.237 L42.4132,130.122 C42.4132,131.717 44.5396,132.709 48.237,133.132 C58.342,133.744 65.1293,135.5 68.3094,138.462 C71.48,141.442 74.9211,148.975 79.3827,160.713 C103.528,224.428 154.86,338.132 179.844,402.901 C187.026,420.572 196.096,423.325 207.055,402.346 C218.347,379.335 241.125,328.264 257.742,290.559 C273.286,328.169 294.45,379.055 304.66,402.104 C312.786,420.553 322.055,422.375 331.458,402.654 C356.058,342.594 427.899,161.842 427.899,161.842 C431.004,152.971 435.342,146.137 440.933,141.172 C446.481,136.269 454.74,133.497 466.321,132.956 C468.666,132.956 469.587,131.774 469.587,129.486 L469.587,121 L469.293,119.913 Z" style="stroke:none;fill-rule:evenodd;fill:#1e1e1e;fill-opacity:1;"/>
        </g>
    </g>
    <g id="Layer2" name="Layer 2" opacity="1">
        <g id="Shape2">
            <desc shapeID="2" type="0" basicInfo-basicType="1" basicInfo-roundedRectRadius="12" basicInfo-polygonSides="6" basicInfo-starPoints="5" bounding="rect(-233.202,-233.202,466.404,466.404)" text="" font-familyName="Helvetica" font-pixelSize="20" font-bold="0" font-underline="0" font-alignment="1" strokeStyle="0" markerStart="0" markerEnd="0" shadowEnabled="0" shadowOffsetX="0" shadowOffsetY="2" shadowBlur="4" shadowOpacity="160" blurEnabled="0" blurRadius="4" transform="matrix(1,0,0,1,252.766,254.331)" pers-center="0,0" pers-size="0,0" pers-start="0,0" pers-end="0,0" locked="0" mesh="" flag=""/>
            <path id="shapePath2" d="M19.5639,21.129 L485.968,21.129 L485.968,487.533 L19.5639,487.533 L19.5639,21.129 Z" style="stroke:#000000;stroke-opacity:1;stroke-width:10;stroke-linejoin:miter;stroke-miterlimit:2;stroke-linecap:butt;fill:none;"/>
        </g>
    </g>
</svg>
